<svg t="1673361152485" class="icon" viewBox="0 0 1116 1024" version="1.1" xmlns="http://www.w3.org/2000/svg" p-id="1401" width="200" height="200"><path d="M1078.881798 194.444944c45.021483 100.846742 28.510921 229.859236-10.953349 328.542921-6.32809 44.802876-7.582202 90.802337-18.53555 133.580225-28.372854 39.257169-71.219775 4.349124-105.057798 0-35.115146-10.964854-72.255281-44.952449-110.684045-18.823191C760.406292 738.660674 657.523056 815.207551 540.395865 832.69609c-9.906337 5.476674-14.266966 17.557573-7.662741 26.347865 68.964674 14.174921 156.476404-3.233079 199.300314 65.662562 9.837303 26.405393-4.556225 49.301573-18.673618 67.906157-68.964674 32.791011-154.290337 15.302472-233.149842 16.441528-36.242697-5.48818-86.591281 5.40764-95.232-42.777887-4.349124-45.999461-1.196584-88.558742-2.31263-133.580225-78.871011-32.791011-160.894562-69.033708-230.837213-129.081528C26.969169 602.698787-11.379056 456.128719 9.411596 299.652315c14.186427-63.626067 26.33636-138.009888 91.929887-170.869933 9.756764-4.429663 24.161798-4.429663 33.987596 0 112.778067 33.987596 217.697798 88.765843 333.708943 114.964135 13.346517-22.965213 17.69564-48.104989 26.347866-73.463371C545.722966 75.258247 643.25609 15.992809 742.975281 2.853393 883.033169-3.750831 1010.987146 68.515955 1078.881798 194.444944" fill="#231916" p-id="1402"></path><path d="M962.84764 151.782112c70.218787 74.441348 88.765843 198.126742 45.009978 288.998113-40.522787 74.441348-115.102202 131.394157-202.602427 127.045033-88.627775 135.766292-229.916764 227.765213-396.288 193.846652-131.394157-36.242697-291.161169-128.103551-318.613573-278.182831-25.082247-93.126472-10.815281-192.719101 18.673618-279.241349 32.940584-7.513169 66.652045 12.080899 97.406562 24.230832 91.998921 36.093124 184.97582 66.790112 278.090786 99.581123 62.302921-9.894831 41.581303-87.649798 68.895641-128.092045 31.674966-65.743101 99.581124-109.568 165.243685-126.906966 96.359551-9.906337 177.531685 16.360989 244.18373 78.721438" fill="#FFF000" p-id="1403"></path><path d="M842.556404 362.001258c0.977978 32.721978-16.441528 61.244404-45.021483 76.546877-12.989843 9.837303-32.721978 4.429663-44.664809-5.407641-20.84818-15.302472-15.521079-42.766382-7.858337-62.360449 8.778787-19.732135 29.626966-33.918562 47.18454-42.697348 22.758112-4.429663 43.606292 14.324494 50.360089 33.918561" fill="#231916" p-id="1404"></path><path d="M1007.834607 622.615011c-20.84818 8.640719-40.442247-3.509213-57.99982-10.953348v-9.894832c25.070742-7.662742 41.569798-33.930067 65.662561-42.708853 7.72027 21.768629-4.498697 42.697348-7.662741 63.557033M484.570607 861.230022c-1.127551 21.906697-1.127551 52.534652 26.186786 52.534652 55.836764-1.058517 110.545978 0.977978 157.59245 18.604584 5.614742 29.638472-38.279191 13.208449-56.745708 20.940225-50.348584-5.695281-110.603506 0.897438-163.264719-4.579236-5.350112-34.977079-12.023371-72.128719-5.350113-108.35991 15.244944 3.371146 52.396584-10.815281 41.581304 20.859685" fill="#F9BE00" p-id="1405"></path></svg>