<svg t="1673333067372" class="icon" viewBox="0 0 1024 1024" version="1.1" xmlns="http://www.w3.org/2000/svg" p-id="7949" width="200" height="200"><path d="M510.85 937.79a418.44 418.44 0 0 1-338.66-172.23 8.29 8.29 0 1 1 13.4-9.78c75.6 103.59 197.19 165.42 325.26 165.42a402.28 402.28 0 0 0 333.69-177.42 8.29 8.29 0 0 1 13.74 9.29 418.84 418.84 0 0 1-347.43 184.72zM103.6 473.63a8.41 8.41 0 0 1-1.08-0.07 8.29 8.29 0 0 1-7.15-9.29 419.06 419.06 0 0 1 829-13.3 8.29 8.29 0 1 1-16.37 2.67c-31.8-195.42-198.83-337.25-397.15-337.25-201.55 0-373.09 150.48-399 350a8.3 8.3 0 0 1-8.25 7.24z" fill="" p-id="7950"></path><path d="M526.27 518.8m-389.4 0a389.4 389.4 0 1 0 778.8 0 389.4 389.4 0 1 0-778.8 0Z" fill="#F2EAA0" p-id="7951"></path><path d="M113.969266 609.814044a120.92 108.28 85.2 1 0 215.800493-18.121273 120.92 108.28 85.2 1 0-215.800493 18.121273Z" fill="" p-id="7952"></path><path d="M214.94 725.41c-62.5 0-116.29-52.49-122.08-121.33-2.93-34.91 6.77-68.8 27.33-95.44 20.68-26.79 49.84-43 82.11-45.75 66.42-5.58 125.4 48.67 131.47 120.93 2.93 34.91-6.77 68.8-27.33 95.44-20.68 26.79-49.84 43-82.11 45.75q-4.72 0.41-9.39 0.4z m-3.24-251.29q-4.19 0-8.42 0.35c-29 2.44-55.23 17.09-73.89 41.27-18.78 24.33-27.64 55.36-25 87.37C110 669 163.32 718.49 223.36 713.44c29-2.44 55.23-17.09 73.89-41.27 18.78-24.33 27.64-55.36 25-87.37-5.33-62.8-54.03-110.68-110.55-110.68zM526.75 295.69A112.37 112.37 0 1 1 405.37 193a112.49 112.49 0 0 1 121.38 102.69z" fill="" p-id="7953"></path><path d="M405.41 427.35a127.24 127.24 0 1 1 10.85-0.46q-5.44 0.46-10.85 0.46z m0.3-242.35q-4.84 0-9.75 0.41a115.36 115.36 0 0 0 9.58 230.32q4.84 0 9.75-0.41A115.36 115.36 0 0 0 405.71 185z" fill="" p-id="7954"></path><path d="M547.705098 608.17268m-231.535115 19.442547a232.35 232.35 0 1 0 463.070231-38.885094 232.35 232.35 0 1 0-463.070231 38.885094Z" fill="" p-id="7955"></path><path d="M547.46 841.32s-87.46-6.52-134.1-48.18c-27.77-24.82-57.14-56.73-64-94-7.17-39.18 6-72.06 36.82-93.41 45.58-31.61 90.82-19.28 138.56 0.08 0 0-46.43-73.52-35.55-136.06 9.8-56.31 40.24-79.18 79.81-76.07 38.7 3 71.85 29.63 71.85 29.63s-5.67-20.33 7.53-16.49 55.15 22.18 83.38 66.28c32.68 51 38.78 113.66 34.79 148.67s-110.14 198.5-110.14 198.5z" fill="#FFFFFF" p-id="7956"></path><path d="M547.8 847.17l-0.77-0.06c-3.65-0.27-90-7.15-137.53-49.64-24.63-22-58.26-56.07-65.81-97.33s6.38-76.46 39.22-99.23c44-30.52 87.49-21.85 128.75-6.51-13.14-25-36.48-77.86-28.15-125.69 9.7-55.74 40.23-84.46 86-80.86 27.18 2.14 51.4 15.1 64.58 23.55a13.45 13.45 0 0 1 3.58-7.86c2.12-2.09 6-4.2 12.39-2.33 2.14 0.62 52.71 15.84 86.62 68.76 31.11 48.56 40.33 111.56 35.67 152.46-4.1 36-106.67 194.29-111 201l-1.34 2.07zM447 592.24c-19.12 0-38.36 5-57.46 18.22-28.87 20-41.09 51.12-34.41 87.59 6.91 37.75 38.77 69.88 62.13 90.77 42.34 37.85 121.39 45.89 129.91 46.65L652.88 815c30.25-46.74 104.8-166.73 107.9-193.93 3.31-29-0.12-92.13-33.91-144.88-25.27-39.44-63.43-59-80.08-63.87a6.67 6.67 0 0 0-1.07-0.23c-0.52 1.7-0.2 6.11 0.76 9.59l4.74 17.32-14-11.21c-0.32-0.25-32.28-25.51-68.67-28.37-39.51-3.12-65 21.53-73.63 71.27-10.38 59.64 34.28 131.24 34.74 132l9.64 15.27-16.74-6.79c-24.5-9.97-49.93-18.93-75.56-18.93z" fill="" p-id="7957"></path><path d="M514.35 804c17.74 24.53 44 43.7 73.59 50.81 42.31 10.16 89.16-11.39 121-38.61 13.25-11.35 24.44-25.67 30.55-42.12 5.48-14.74 4.78-30.78 2.83-46.22" fill="#FFFFFF" p-id="7958"></path><path d="M610 863.14a100 100 0 0 1-23.41-2.71c-29.66-7.12-57.7-26.46-76.94-53.06a5.81 5.81 0 1 1 9.41-6.81c17.63 24.38 43.23 42.09 70.24 48.57 41.56 10 87.08-12.76 115.82-37.37 13.55-11.6 23.54-25.34 28.88-39.73 5.25-14.14 4.22-29.91 2.52-43.47a5.81 5.81 0 1 1 11.48-1.44c1.88 15 3 32.48-3.15 49-6 16.24-17.18 31.63-32.22 44.5-25.63 21.97-64.1 42.52-102.63 42.52z" fill="" p-id="7959"></path><path d="M458.66 668.35c10.75 15.55 22.89 40.12 26.65 49.18 20.91 50.47 58.76 118.82 125.18 114.53 69-4.48 99.77-54.62 105.29-67.64s-18.45-38.74-18.45-38.74l-66.41-15.17L510.65 683l-36.3-8.29c-5.98-1.32-9.67-6.57-15.69-6.36z" fill="#333333" p-id="7960"></path><path d="M604.58 838.06c-28.83 0-55.07-13-78.08-38.85-17.15-19.21-32.38-45.21-46.56-79.45-3.87-9.33-15.88-33.39-26.06-48.1a5.81 5.81 0 0 1 4.57-9.11c5.15-0.17 9 2.16 12.06 4a18.2 18.2 0 0 0 5.13 2.5l223 50.93a5.8 5.8 0 0 1 3 1.7c4.43 4.76 26.19 29.28 19.55 45-0.88 2.08-9.2 20.81-30.39 39.15-22.24 19.25-49.11 30-79.87 32q-3.23 0.23-6.35 0.23zM473 680.4a359.38 359.38 0 0 1 17.66 34.91c13.67 33 28.23 57.91 44.5 76.16 22.17 24.87 47.41 36.57 75 34.79 74.37-4.83 100.06-63.51 100.31-64.11 2.52-6-7.45-21.46-16.17-31.22l-221.25-50.52z" fill="" p-id="7961"></path><path d="M687.17 803.33s-26-25.31-56.86-26c-14.2-0.29-25.48 3-36.89 5a377.37 377.37 0 0 1-33.9-20.19l-48.86 4.37s16.51 26.6 26.51 35.93S559.5 830 592.5 833.33c29.3 3 64.38-11.36 69.17-14s25.5-16 25.5-16z" fill="#F7214A" p-id="7962"></path><path d="M600.85 838a87.16 87.16 0 0 1-8.78-0.43c-29.55-3-43.77-17.64-53.18-27.34-1.63-1.68-3.17-3.27-4.61-4.61C524 796 507.75 769.9 507.07 768.8a4.22 4.22 0 0 1 3.21-6.43l48.86-4.37a4.23 4.23 0 0 1 2.75 0.71c0.16 0.11 15.84 10.72 32.2 19.27 2.22-0.41 4.43-0.86 6.75-1.33 9-1.83 18.31-3.73 29.56-3.49 32.2 0.66 58.61 26.07 59.72 27.15a4.22 4.22 0 0 1-0.66 6.57c-0.85 0.55-20.89 13.48-25.75 16.15-3.97 2.19-34.06 14.97-62.86 14.97zM518 770.16c5.38 8.24 15.4 23 22.08 29.26 1.59 1.48 3.2 3.14 4.9 4.9 9.07 9.35 21.49 22.14 48 24.82 28.56 2.87 62.83-11.37 66.71-13.5 3.21-1.77 14.15-8.73 20.52-12.81-8.23-6.74-28-20.76-49.93-21.21-10.32-0.2-19.15 1.59-27.7 3.33-2.74 0.56-5.57 1.13-8.37 1.62a4.21 4.21 0 0 1-2.66-0.41 376.42 376.42 0 0 1-33.08-19.61z" fill="" p-id="7963"></path><path d="M512.42 769.46s56.88-30.54 84.76 24.09" fill="#F7214A" p-id="7964"></path><path d="M597.18 797.77a4.23 4.23 0 0 1-3.77-2.3c-7.44-14.58-17.73-24-30.58-28-23.56-7.37-48.17 5.61-48.41 5.75a4.22 4.22 0 0 1-4-7.44c1.13-0.61 28-14.78 54.93-6.37 15.1 4.72 27.08 15.58 35.59 32.25a4.22 4.22 0 0 1-3.76 6.14z" fill="" p-id="7965"></path><path d="M721.684362 533.341751a59.98 13.82 61.17 1 0 24.214142-13.328352 59.98 13.82 61.17 1 0-24.214142 13.328352Z" fill="" p-id="7966"></path><path d="M458.11 653.57c40.55 60.73 108.11 114.75 178.64 121.66 41.35 4 81.47-8.27 117.62-29.31 54.55-31.76 104.79-67 113.44-134.91 2.14-16.81 0.15-65.88-24.1-72.81-22-6.28-86.22-12.84-115.93 43.68" fill="#F2EAA0" p-id="7967"></path><path d="M458.06 653c39.59 61.08 105.42 115.51 174 122.63 40.22 4.18 75-12 110.12-33.06 53-31.74 105.87-63 114.1-131.2 2-16.87 0-66.14-23.63-73.17-21.36-6.36-76-10.5-104.69 46.17" fill="#FFFFFF" p-id="7968"></path><path d="M652.18 778.51q-8.29 0-16.36-0.69c-36.1-3.09-73.92-17.13-109.38-40.6a324.08 324.08 0 0 1-84-81.26 5.81 5.81 0 0 1 9.46-6.75c46.71 65.48 119.31 111.42 185 117 37.83 3.23 79.93-5.67 125.1-26.46 40.89-18.83 110.23-61 115.3-132.3 2.46-34.7-1.92-70.66-15.08-72.27-21-2.57-91.94-6.72-122.78 47.54a5.81 5.81 0 1 1-10.1-5.74c14.54-25.59 38.41-42.47 70.94-50.17 27.4-6.49 53.42-4.37 63.34-3.16 28 3.42 27 60.32 25.26 84.62-2.25 31.6-16.32 61-41.82 87.32-20.32 21-48.05 39.9-80.21 54.71-40.76 18.76-79.22 28.21-114.67 28.21z" fill="" p-id="7969"></path><path d="M821.41 495.43c-4.56 17-1.35 88 26.47 84.16 40.21-5.52 67.5-68.72 41.36-100.75-8.53-10.45-23.1-15.39-36.35-12.84a41.29 41.29 0 0 0-31.48 29.43z" fill="" p-id="7970"></path><path d="M871.91 482.15a10.29 10.29 0 0 1 2.7 0.66c9.79 3.75 13.11 13.58 13.06 23.28 0 5.9 0.71 12.56-1.43 18.2a8.15 8.15 0 0 1-4.41 4.86 7.77 7.77 0 0 1-5.68-0.27 13 13 0 0 1-5.69-4.44c-3.86-5.7 0.73-14.85 1-21.17 0.15-3.89 0.78-7.24-1.66-10.48a14.6 14.6 0 0 1-2.66-4.63 5 5 0 0 1 1.09-5 4.72 4.72 0 0 1 3.68-1.01z" fill="#F2EAA0" p-id="7971"></path><path d="M641.155417 562.937539a75.53 23.07 65.12 1 0 41.85779-19.411983 75.53 23.07 65.12 1 0-41.85779 19.411983Z" fill="" p-id="7972"></path></svg>