<?xml version="1.0" standalone="no"?><!DOCTYPE svg PUBLIC "-//W3C//DTD SVG 1.1//EN" "http://www.w3.org/Graphics/SVG/1.1/DTD/svg11.dtd"><svg t="1673360931519" class="icon" viewBox="0 0 1024 1024" version="1.1" xmlns="http://www.w3.org/2000/svg" p-id="1146" xmlns:xlink="http://www.w3.org/1999/xlink" width="200" height="200"><path d="M560.9 254s-37.2-12.1-42.3-50.1c-1-7.1-9.9-9.7-14.5-4.2-13.1 15.6-25 60.8 3.1 96.5" fill="#FF3B57" p-id="1147"></path><path d="M507.1 302.8c-1.9 0-3.8-0.9-5.1-2.5-16.9-21.5-19.3-44.6-18.3-60.2 1.1-17.4 7-34.5 15.4-44.5 3.8-4.5 9.7-6.3 15.4-4.7 5.7 1.6 9.7 6.3 10.5 12.2 4.6 33.5 37.6 44.6 37.9 44.8 3.4 1.1 5.3 4.8 4.2 8.2-1.1 3.4-4.8 5.3-8.2 4.2-1.7-0.5-41.1-13.8-46.7-55.4-0.1-0.9-0.7-1.3-1.2-1.4-0.5-0.1-1.3-0.2-1.9 0.6-12.3 14.6-21.7 56.6 3.2 88.3 2.2 2.8 1.7 6.9-1.1 9.1-1.2 0.9-2.7 1.3-4.1 1.3z" fill="#2919BC" p-id="1148"></path><path d="M519 251.9s-9.1 10.9-26.3 10.8" fill="#FF398A" p-id="1149"></path><path d="M492.7 269.3c-3.7 0-6.6-2.9-6.6-6.5s2.9-6.5 6.5-6.5h0.1c13.7 0 21.2-8.4 21.3-8.5 2.3-2.7 6.4-3.1 9.2-0.8 2.7 2.3 3.1 6.4 0.8 9.2-0.5 0.4-11.4 13.1-31.3 13.1z" fill="#2919BC" p-id="1150"></path><path d="M507.4 232.8s-7.4 3.6-14.7 1.9" fill="#FF398A" p-id="1151"></path><path d="M496.9 241.7c-1.8 0-3.8-0.2-5.8-0.7-3.5-0.8-5.7-4.3-4.8-7.8 0.8-3.5 4.3-5.7 7.8-4.8 4.9 1.2 10.3-1.3 10.3-1.4 3.2-1.6 7.1-0.2 8.7 3 1.6 3.2 0.2 7.1-3 8.7-0.6 0.3-6.2 3-13.2 3z" fill="#2919BC" p-id="1152"></path><path d="M679.8 227c-121 0-162.6 81.3-162.6 180.6v290.7c0 237.2 162.6 184.9 162.6 184.9s162.6 52.3 162.6-184.9V407.6c0-99.3-41.5-180.6-162.6-180.6z" fill="#FF3B57" p-id="1153"></path><path d="M716.2 894.8c-17.7 0-31.4-3.3-36.4-4.7-10.9 3-62.7 15-106.9-17.1-41.3-30.1-62.2-88.8-62.2-174.6V407.6c0-55.6 12.5-99.8 37.3-131.6 28.7-36.9 73.1-55.6 131.8-55.6 58.7 0 103.1 18.7 131.8 55.6 24.7 31.7 37.3 76 37.3 131.6v290.7c0 85.8-20.9 144.5-62.2 174.6-23.8 17.4-49.8 21.9-70.5 21.9z m-36.4-661.3c-129 0-156.1 94.7-156.1 174.1v290.7c0 81.4 19.1 136.6 56.9 164.1 43.2 31.5 96.7 14.9 97.2 14.7 1.3-0.4 2.7-0.4 4 0 0.5 0.2 54.2 16.7 97.3-14.8 37.7-27.5 56.8-82.7 56.8-164V407.6c0-79.4-27.1-174.1-156.1-174.1z" fill="#2919BC" p-id="1154"></path><path d="M648.2 227c-121 0-162.6 81.3-162.6 180.6v290.7c0 237.2 162.6 184.9 162.6 184.9s162.6 52.3 162.6-184.9V407.6c-0.1-99.3-41.6-180.6-162.6-180.6z" fill="#FFFFFF" p-id="1155"></path><path d="M611.8 894.8c-20.6 0-46.7-4.5-70.4-21.8-41.3-30.1-62.2-88.8-62.2-174.6V407.6c0-55.6 12.5-99.8 37.3-131.6 28.7-36.9 73.1-55.6 131.8-55.6 58.7 0 103.1 18.7 131.8 55.6 24.7 31.7 37.3 76 37.3 131.6v290.7c0 85.8-20.9 144.5-62.2 174.6-44.1 32.2-96 20.2-106.9 17.1-5.2 1.5-18.9 4.8-36.5 4.8z m36.4-18c0.7 0 1.3 0.1 2 0.3 0.5 0.2 54.2 16.7 97.3-14.8 37.7-27.5 56.8-82.7 56.8-164V407.6c0-79.4-27.1-174.1-156.1-174.1s-156.1 94.7-156.1 174.1v290.7c0 81.3 19.1 136.5 56.8 164 43.1 31.5 96.8 14.9 97.3 14.8 0.6-0.2 1.3-0.3 2-0.3z" fill="#2919BC" p-id="1156"></path><path d="M684.5 861.2c-15.5 0-27.1-3.3-28.2-3.6l-8.5-2.9-7.9 2.9c-1.2 0.4-12.8 3.6-28.1 3.6-25.2 0-45.9-8.3-61.5-24.8-11-11.6-19.7-27.4-26-47.1-7.8-24.5-11.7-55.1-11.7-91V407.6c0-23.4 2.5-44.7 7.5-63.1 5.1-18.9 12.7-35 22.7-47.8 10.5-13.5 23.6-23.6 39.8-30.7 18.1-7.9 40.2-12 65.6-12s47.5 4 65.6 12c16.2 7.1 29.2 17.1 39.8 30.7 10 12.9 17.7 29 22.7 47.8 4.9 18.5 7.5 39.7 7.5 63.1v290.7c0 35.8-3.9 66.4-11.7 91-6.2 19.7-15 35.5-26 47.1-15.7 16.5-36.4 24.8-61.6 24.8z" fill="#FFBDC3" p-id="1157"></path><path d="M657.7 833.9h-49.1c-39.8 0-72.4-32.6-72.4-72.4V512.4c0-53.3 43.6-96.9 96.9-96.9 53.3 0 96.9 43.6 96.9 96.9v249.1c0.1 39.8-32.5 72.4-72.3 72.4z" fill="#FF999E" p-id="1158"></path><path d="M748 242.6s37.2-12.1 42.3-50.1c1-7.1 9.9-9.7 14.5-4.2 13.1 15.6 25 60.8-3.1 96.5" fill="#FF3B57" p-id="1159"></path><path d="M801.8 291.3c-1.4 0-2.8-0.5-4-1.4-2.8-2.2-3.3-6.3-1.1-9.1 24.9-31.7 15.5-73.7 3.2-88.3-0.6-0.7-1.4-0.7-1.9-0.6-0.5 0.1-1.1 0.5-1.2 1.4-5.6 41.5-45.1 54.8-46.7 55.4-3.4 1.1-7.1-0.8-8.2-4.2-1.1-3.4 0.7-7.1 4.2-8.2 1.4-0.5 33.4-11.4 37.9-44.8 0.8-5.9 4.8-10.5 10.5-12.2 5.7-1.7 11.6 0.1 15.4 4.7 8.4 10 14.3 27.1 15.4 44.5 1 15.6-1.4 38.7-18.3 60.2-1.4 1.8-3.3 2.6-5.2 2.6z" fill="#2919BC" p-id="1160"></path><path d="M774.7 251.5s12.2 21.3 34.9 21.3" fill="#FF398A" p-id="1161"></path><path d="M809.6 279.3c-26.2 0-40-23.5-40.5-24.5-1.8-3.1-0.7-7.1 2.4-8.9 3.1-1.8 7.1-0.7 8.9 2.4 0.1 0.3 10.8 18 29.3 18 3.6 0 6.5 2.9 6.5 6.5s-3 6.5-6.6 6.5z" fill="#2919BC" p-id="1162"></path><path d="M791.5 237.5s9.1 10.9 26.3 10.8" fill="#FF398A" p-id="1163"></path><path d="M817.7 254.9c-19.9 0-30.8-12.6-31.2-13.2-2.3-2.7-2-6.8 0.8-9.2 2.7-2.3 6.8-2 9.1 0.8 0.4 0.4 7.7 8.6 21.3 8.6h0.1c3.6 0 6.5 2.9 6.5 6.5 0 3.5-2.9 6.5-6.6 6.5 0.1 0 0.1 0 0 0z" fill="#2919BC" p-id="1164"></path><path d="M803.1 220.2s7.4 3.6 14.7 1.9" fill="#FF398A" p-id="1165"></path><path d="M813.5 229c-6.9 0-12.5-2.6-13.3-3-3.2-1.6-4.6-5.5-3-8.7 1.6-3.2 5.4-4.5 8.7-3 1.5 0.7 6.3 2.4 10.4 1.4 3.5-0.8 7 1.3 7.8 4.8s-1.3 7-4.8 7.8c-2 0.5-3.9 0.7-5.8 0.7z" fill="#2919BC" p-id="1166"></path><path d="M825.2 783s7.2 8.1 19.5 12c16.2 5.2 34 1 52.9-12.4 5.5-3.9 13.2-2.6 17.1 2.9 3.9 5.5 2.6 13.2-2.9 17.1-15.5 11-29.7 16.3-42.1 18.2-13.6 2.1-25.1 0.1-33.9-2.9-7.5-2.6-13.7-6.1-18.4-9.4" fill="#FF3B57" p-id="1167"></path><path d="M858.4 828.2c-8.5 0-16.7-1.4-24.7-4.1-7.1-2.4-13.9-5.9-20.1-10.3-2.9-2.1-3.6-6.1-1.6-9.1 2.1-2.9 6.1-3.6 9.1-1.6 5.2 3.7 10.8 6.6 16.8 8.6 9.8 3.4 20.2 4.2 30.8 2.6 12.9-2 26.2-7.7 39.3-17.1 1.3-0.9 2.1-2.2 2.3-3.7 0.3-1.5-0.1-3-1-4.3-0.9-1.3-2.2-2.1-3.7-2.3-1.5-0.3-3 0.1-4.3 1-20.6 14.6-40.4 19.1-58.6 13.3-12.7-4-20.6-12-22.2-13.7l-0.3-0.3-0.1-0.1c-2.4-2.7-2.1-6.8 0.6-9.2 2.7-2.4 6.8-2.1 9.2 0.6 0 0 6.3 6.9 16.7 10.2 14.2 4.5 30 0.6 47.2-11.5 4.1-2.9 9-4 14-3.2 4.9 0.8 9.3 3.5 12.2 7.6 2.9 4.1 4 9.1 3.2 14-0.8 4.9-3.5 9.3-7.6 12.2-14.8 10.5-29.9 17-44.8 19.3-4.2 0.8-8.3 1.1-12.4 1.1z" fill="#2919BC" p-id="1168"></path><path d="M919 743.6c-2.8 18.4-16.8 26.3-29.8 32.9-8.8 4.5-11.9 13.2-10.9 21.4 1.3 11.1 12.5 19.2 24.6 17.2 9.3-1.5 19.5-11.3 22.1-22.6 2.8-12.1 1.8-29.8-6-48.9z" fill="#EA8E15" p-id="1169"></path><path d="M899.3 821.9c-6.2 0-12.2-2-17.1-5.7-5.8-4.4-9.5-10.6-10.3-17.6-1.4-12 4.1-22.7 14.4-28 13.1-6.6 24.1-13.3 26.3-28.1 0.4-2.9 2.8-5.1 5.7-5.5 2.9-0.3 5.7 1.3 6.8 4 7.5 18.5 9.8 37.7 6.3 52.9-3.1 13.4-15.1 25.5-27.4 27.5-1.6 0.4-3.2 0.5-4.7 0.5z m18.8-59.1c-7.2 10-18 15.5-25.9 19.5-7.8 4-7.8 11.7-7.4 14.9 0.4 3.4 2.3 6.5 5.2 8.7 3.3 2.5 7.7 3.6 11.9 2.9 6.3-1 14.7-8.5 16.8-17.6 1.8-8.2 1.6-18.1-0.6-28.4z" fill="#2919BC" p-id="1170"></path><path d="M679.8 278.7c8.3-0.1 16 2 23.2 6.2 6.4 3.8 12.2-6.2 5.8-9.9-8.9-5.2-18.7-7.8-29-7.8-7.4 0.1-7.4 11.6 0 11.5z" fill="#FFFFFF" p-id="1171"></path><path d="M652.8 273.5h0.7c1.5 0 3-0.6 4.1-1.7 1-1 1.7-2.6 1.7-4.1-0.1-1.5-0.6-3-1.7-4.1-1.1-1-2.5-1.7-4.1-1.7h-0.7c-1.5 0-3 0.6-4.1 1.7-1 1-1.7 2.6-1.7 4.1 0.1 1.5 0.6 3 1.7 4.1 1.1 1 2.5 1.7 4.1 1.7z" fill="#FFFFFF" p-id="1172"></path><path d="M240.7 611.8c-59.8 0-108.4-48.6-108.4-108.4 0-35.1 16.8-67.7 45.2-88.1 1.6-27.6 13.3-53.4 33.2-72.8 20.9-20.4 48.4-31.6 77.6-31.6 61.2 0 111 49.8 111 111 0 19.6-5.2 38.8-14.9 55.6-8.8 15.2-21.2 28.2-36 37.7-2.8 25.8-14.7 49.6-33.8 67.4-20.1 18.9-46.4 29.2-73.9 29.2z" fill="#069183" p-id="1173"></path><path d="M288.3 318.4c57.2 0 103.5 46.3 103.5 103.5 0 37.8-20.3 70.9-50.6 88.9-3.8 52.3-47.4 93.5-100.6 93.5-55.7 0-100.9-45.2-100.9-100.9 0-35.1 17.9-65.9 45.1-84 1.4-56 47.2-101 103.5-101m0-15c-31.2 0-60.6 12-82.9 33.8-20.4 20-32.7 46.1-35.2 74.2-28.6 21.9-45.5 55.7-45.5 92 0 30.9 12.1 60 33.9 81.9 21.9 21.9 51 33.9 81.9 33.9 29.5 0 57.6-11.1 79.1-31.2 19.5-18.2 32-42.4 35.7-68.6 14.5-10 26.6-23.1 35.4-38.3 10.4-18 16-38.5 16-59.4 0-31.7-12.3-61.4-34.7-83.8-22.3-22.1-52-34.5-83.7-34.5z" fill="#2919BC" p-id="1174"></path><path d="M171.1 512.3c0-35.1 17.9-65.9 45.1-84 1.3-56 47.1-101 103.5-101 4.1 0 8.1 0.2 12.1 0.7-13.2-6.1-27.9-9.5-43.4-9.5-56.3 0-102.2 45-103.5 101-27.2 18.1-45.1 49-45.1 84 0 51.9 39.2 94.6 89.5 100.2-34.3-16.1-58.2-51-58.2-91.4z" fill="#07ADA8" p-id="1175"></path><path d="M505 611.8c-27.6 0-53.8-10.4-74-29.2-19.1-17.8-31-41.6-33.8-67.4-14.8-9.5-27.2-22.5-36-37.7-9.8-16.8-14.9-36.1-14.9-55.6 0-61.2 49.8-111 111-111 29.2 0 56.8 11.2 77.6 31.6 19.9 19.5 31.6 45.2 33.2 72.8 28.4 20.4 45.2 53 45.2 88.1 0 59.8-48.6 108.4-108.3 108.4z" fill="#069183" p-id="1176"></path><path d="M457.3 318.4c56.3 0 102.2 45 103.5 101 27.2 18.1 45.1 49 45.1 84 0 55.7-45.2 100.9-100.9 100.9-53.2 0-96.8-41.2-100.6-93.5-30.3-18.1-50.6-51.1-50.6-88.9 0-57.1 46.4-103.5 103.5-103.5m0-15c-31.7 0-61.4 12.3-83.8 34.7-22.4 22.4-34.7 52.1-34.7 83.8 0 20.9 5.5 41.4 16 59.4 8.8 15.2 21 28.3 35.4 38.3 3.6 26.2 16.1 50.3 35.7 68.6 21.5 20.1 49.6 31.2 79.1 31.2 30.9 0 60-12.1 81.9-33.9 21.9-21.9 33.9-51 33.9-81.9 0-36.3-16.9-70.2-45.5-92-2.5-28.2-14.8-54.3-35.2-74.2-22.2-22-51.6-34-82.8-34z" fill="#2919BC" p-id="1177"></path><path d="M560.8 419.5c-1.3-56-47.1-101-103.5-101-19.4 0-37.5 5.3-53 14.6 7.4-1.7 15.2-2.6 23.1-2.6 56.3 0 102.2 45 103.5 101 27.2 18.1 45.1 49 45.1 84 0 36.7-19.6 68.8-48.8 86.4 45.1-10.1 78.7-50.3 78.7-98.4-0.1-35.1-18-66-45.1-84z" fill="#0EC6C6" p-id="1178"></path><path d="M300.6 889.5h-3.8c-0.3 0-1-0.1-1-0.1h-1c-0.3 0-0.5 0-0.8-0.1-36.4-3.2-59.1-21.7-71.6-58.3-11.5-33.9-14.7-84.3-10.2-163.6 8.4-149.1 39.5-227.9 40.9-231.2 1-2.5 3.4-4.1 6-4.1 0.4 0 0.8 0 1.1 0.1l62.2 10.9 63.1-3.9h0.4c2.9 0 5.5 1.9 6.3 4.8 0.9 3.4 23.1 85.2 14.7 234.3-4.3 76.2-13.6 126.9-29.3 159.7-16.5 34.6-41.7 51.5-77 51.5z" fill="#BDF4D1" p-id="1179"></path><path d="M259.2 438.6l63 11.1 63.8-3.9s22.9 82.4 14.5 232.2c-8.2 145.7-34.9 205-99.9 205-1.1 0-2.2 0-3.4-0.1-0.3 0-0.7 0-1-0.1h-1c-67.2-5.5-84.8-66.8-76.4-215.1 8.4-149.8 40.4-229.1 40.4-229.1m0-13c-5.2 0-10 3.2-12 8.1-0.3 0.8-8.5 21.2-17.6 60.3-8.4 35.7-19.3 94.7-23.7 173-4.5 80.1-1.2 131.3 10.6 166 13.2 38.7 38.3 59.3 76.9 62.7 0.4 0.1 0.8 0.1 1.2 0.1h1c0.3 0 0.6 0 1 0.1h4c38 0 65.2-18.1 83-55.3 16.1-33.6 25.6-85.1 29.9-162.1 4.4-78.3 0.2-138.1-4.2-174.5-4.7-39.9-10.5-61-10.8-61.9-1.6-5.7-6.7-9.5-12.5-9.5h-0.8l-62.3 3.9-61.5-10.8c-0.7-0.1-1.5-0.1-2.2-0.1z" fill="#2919BC" p-id="1180"></path><path d="M451.1 889.5c-35.3 0-60.5-16.9-77.1-51.6-15.7-32.8-25-83.5-29.3-159.7-8.4-149.1 13.8-230.9 14.7-234.3 0.8-2.8 3.4-4.8 6.3-4.8h0.4l63.1 3.9 62.2-10.9c0.4-0.1 0.8-0.1 1.1-0.1 2.6 0 5 1.6 6 4.1 1.3 3.3 32.5 82 40.9 231.2 4.4 79.2 1.3 129.7-10.2 163.6-12.5 36.6-35.2 55.2-71.6 58.3-0.3 0-0.5 0.1-0.8 0.1-0.3 0-1.2 0.1-1.2 0.1-0.3 0-0.6 0-0.8 0.1h-3.7z" fill="#BDF4D1" p-id="1181"></path><path d="M492.5 438.6s32 79.3 40.4 229.1c8.3 148.3-9.2 209.6-76.4 215.1h-1c-0.3 0-0.7 0-1 0.1-1.1 0-2.3 0.1-3.4 0.1-65 0-91.7-59.3-99.9-205.1-8.4-149.8 14.5-232.2 14.5-232.2l63.8 3.9 63-11m0-13c-0.7 0-1.5 0.1-2.3 0.2l-61.5 10.8-62.3-3.9h-0.8c-5.8 0-10.9 3.9-12.5 9.5-0.2 0.9-6.1 22-10.8 61.9-4.3 36.4-8.6 96.2-4.2 174.5 4.3 77 13.8 128.6 29.9 162.1 17.8 37.2 44.9 55.3 83 55.3h4.1c0.3 0 0.6 0 1-0.1h1c0.4 0 0.8-0.1 1.2-0.1 38.6-3.4 63.7-24 76.9-62.7 11.8-34.7 15.1-85.9 10.6-166-4.4-78.3-15.3-137.3-23.7-173-9.2-39.1-17.3-59.4-17.6-60.3-1.9-5.1-6.7-8.2-12-8.2z" fill="#2919BC" p-id="1182"></path><path d="M444.2 538c-25.9 0-50.5-10.3-68.7-28.4-18.2 18.2-42.8 28.4-68.7 28.4-53.6 0-97.3-43.6-97.3-97.3 0-46.6 33.5-86.7 78.7-95.5 2.1-20.7 11.3-39.8 26.4-54.3 16.4-15.8 38-24.6 60.8-24.6s44.4 8.7 60.8 24.6c15.1 14.5 24.3 33.7 26.4 54.3 45.2 8.7 78.7 48.9 78.7 95.5 0.1 53.6-43.5 97.3-97.1 97.3z" fill="#04A599" p-id="1183"></path><path d="M375.5 272.8c43.8 0 79.4 34.6 81.1 78 44.3 6 78.4 44 78.4 89.9 0 50.1-40.6 90.8-90.8 90.8-27.5 0-52.1-12.2-68.7-31.5-16.6 19.3-41.3 31.5-68.7 31.5-50.1 0-90.8-40.6-90.8-90.8 0-45.9 34.1-83.9 78.4-89.9 1.6-43.4 37.3-78 81.1-78m0-13c-24.5 0-47.7 9.4-65.4 26.4-15.1 14.5-24.7 33.3-27.8 53.7-20.6 5-39.4 16.2-53.5 32.4-16.7 18.9-25.8 43.3-25.8 68.5 0 57.2 46.5 103.8 103.8 103.8 25.5 0 49.9-9.3 68.7-26 18.9 16.7 43.2 26 68.7 26 57.2 0 103.8-46.5 103.8-103.8 0-25.2-9.2-49.6-25.8-68.5-14.2-16.1-32.9-27.4-53.5-32.4-3.1-20.4-12.7-39.1-27.8-53.7-17.7-17-40.9-26.4-65.4-26.4z" fill="#2919BC" p-id="1184"></path><path d="M456.6 350.8c-1.7-43.3-37.4-78-81.1-78-21.7 0-41.4 8.5-55.9 22.4 7.5-2.3 15.5-3.5 23.8-3.5 43.8 0 79.4 34.6 81.1 78 44.3 6 78.4 44 78.4 89.9 0 26.7-11.5 50.7-29.9 67.3 36-12 62-46 62-86.1-0.1-46-34.2-84-78.4-90zM335.5 526.8c3.8-1.3 7.5-2.8 11-4.5-1.1-1.1-2.2-2.3-3.2-3.5-2.4 2.8-5 5.5-7.8 8z" fill="#0EC6C6" p-id="1185"></path><path d="M360.6 892.8c-23.3 0-40.2-6.8-48.9-19.7-5-5.4-32.6-40.5-32.6-167.7 0-88.5 18.7-246.3 22.4-277 0.6-4.8 4.7-8.5 9.5-8.5 1.9 0 3.7 0.5 5.2 1.5l53.9 34.9c1.7 1.1 3.6 1.7 5.6 1.7 2 0 4-0.6 5.6-1.7l54-34.9c1.6-1 3.4-1.5 5.2-1.5 4.9 0 9 3.6 9.5 8.5 3.7 30.7 22.4 188.4 22.4 277 0 127.2-27.6 162.3-32.6 167.7-8.7 12.9-25.6 19.7-48.9 19.7h-30.3z" fill="#DCFFF5" p-id="1186"></path><path d="M440.7 426.5c1.5 0 2.9 1.1 3.1 2.7 3.6 29.9 22.4 187.9 22.4 276.2C466.1 841.1 435 869 435 869c-9 13.9-28 17.3-43.9 17.3h-30.6c-15.9 0-34.9-3.4-43.9-17.3 0 0-31.2-27.9-31.2-163.5 0-88.3 18.8-246.3 22.4-276.2 0.2-1.7 1.6-2.7 3.1-2.7 0.6 0 1.2 0.2 1.7 0.5l53.9 34.9c2.8 1.8 6 2.7 9.2 2.7s6.4-0.9 9.2-2.7l54-34.9c0.6-0.4 1.2-0.6 1.8-0.6m0-13c-3.1 0-6.1 0.9-8.7 2.6L378 451c-0.8 0.5-1.6 0.6-2.1 0.6s-1.3-0.1-2.1-0.6l-53.9-34.9c-2.6-1.7-5.6-2.6-8.7-2.6-8.1 0-15 6.1-16 14.2-3.8 30.8-22.5 188.9-22.5 277.8 0 57.6 5.5 103.6 16.2 136.7 7 21.6 14.5 31.5 17.8 35.1 10 14.4 28.7 22.1 54 22.1h30.6c25.3 0 44-7.6 54-22.1 3.3-3.6 10.8-13.5 17.8-35.1 10.8-33.1 16.2-79 16.2-136.7 0-88.9-18.7-247-22.5-277.8-1.1-8.1-8-14.2-16.1-14.2z" fill="#2919BC" p-id="1187"></path><path d="M424.7 852h-30.6c-15.9 0-34.9-3.4-43.9-17.3 0 0-31.2-27.9-31.2-163.5 0-64.9 10.1-167.4 16.9-229L312.7 427c-1.9-1.3-4.5-0.1-4.8 2.2-3.6 29.9-22.4 187.9-22.4 276.2 0 135.6 31.2 163.5 31.2 163.5 9 13.9 28 17.3 43.9 17.3h30.6c15.9 0 34.9-3.4 43.9-17.3 0 0 5.2-4.7 11.4-19.6-7.2 2-14.8 2.7-21.8 2.7z" fill="#B1EFEA" p-id="1188"></path><path d="M361.1 898.8c-1.3 0-2.7-0.4-3.8-1.2-30-21.7-32.1-79.7-32.2-82.1-0.1-3.6 2.7-6.6 6.3-6.7 3.6-0.1 6.6 2.7 6.7 6.3 0 0.5 2 54.1 26.8 72 2.9 2.1 3.6 6.2 1.5 9.1-1.3 1.6-3.3 2.6-5.3 2.6zM387.3 898.8c-2.2 0-4.3-1.1-5.5-3.1-1.9-3.1-0.9-7.1 2.1-8.9 13.6-8.4 20.1-32.7 21.5-41.4 0.6-3.5 3.9-6 7.4-5.4 3.5 0.6 6 3.9 5.4 7.4-0.2 1.5-6.1 37.2-27.5 50.4-1.1 0.7-2.3 1-3.4 1zM442.1 889.5c-3 0-5.8-2.2-6.4-5.3-0.7-3.5 1.6-6.9 5.1-7.6 24.1-4.7 36-25.8 36.2-26 1.7-3.1 5.7-4.3 8.8-2.6 3.1 1.7 4.3 5.7 2.6 8.8-0.6 1.1-14.8 26.6-45.1 32.5-0.4 0.1-0.8 0.2-1.2 0.2zM308.7 892.8c-0.5 0-1.1-0.1-1.6-0.2-27.8-7.1-42.8-32.1-43.5-33.2-1.8-3.1-0.8-7.1 2.3-8.9 3.1-1.8 7.1-0.8 8.9 2.3 0.2 0.3 13.1 21.5 35.5 27.2 3.5 0.9 5.6 4.4 4.7 7.9-0.8 2.9-3.4 4.9-6.3 4.9z" fill="#2919BC" p-id="1189"></path><path d="M234.7 768.1c-3.4 0-6.3-2.7-6.5-6.2-2.6-48.7 2-108.1 6.3-149.5 0.4-3.6 3.6-6.2 7.1-5.8 3.6 0.4 6.2 3.6 5.8 7.1-4.3 40.9-8.8 99.6-6.3 147.4 0.2 3.6-2.6 6.6-6.1 6.8-0.1 0.2-0.2 0.2-0.3 0.2z" fill="#2919BC" p-id="1190"></path><path d="M244.6 588h-0.1c-3.6-0.1-6.4-3.1-6.4-6.6 0-0.4 0-0.7 1.3-11.3 0.4-3.6 3.7-6.1 7.3-5.6 3.6 0.4 6.1 3.7 5.6 7.3-0.6 4.5-1.2 9.5-1.3 10.4-0.1 3.2-3 5.8-6.4 5.8z" fill="#2919BC" p-id="1191"></path><path d="M198.2 556.1c-21 0-38.2-16.2-38.2-36.2 0-11.5 5.9-22.5 15.7-29.3 3-2 7-1.3 9 1.7s1.3 7-1.7 9c-6.4 4.4-10.1 11.2-10.1 18.6 0 12.8 11.3 23.2 25.2 23.2 3.6 0 6.5 2.9 6.5 6.5s-2.8 6.5-6.4 6.5z" fill="#2919BC" p-id="1192"></path><path d="M326 377.2c-3.3 0-6.1-2.5-6.5-5.8-1-9.3 1.6-17.8 7.2-23.9 5.9-6.4 14.8-9.8 25-9.6 3.6 0.1 6.4 3.1 6.4 6.6-0.1 3.6-3.1 6.4-6.6 6.4-6.4-0.1-11.8 1.8-15.1 5.4-3.1 3.4-4.4 8.1-3.9 13.8 0.4 3.6-2.2 6.8-5.8 7.1h-0.7z" fill="#2919BC" p-id="1193"></path><path d="M352.3 350.5c-0.6 0-1.2-0.1-1.8-0.3-3.5-1-5.5-4.6-4.5-8 5.8-20.2 26.1-32.3 45.2-26.8 11.1 3.2 20 11.8 23.8 23.1 1.2 3.4-0.7 7.1-4.1 8.2-3.4 1.2-7.1-0.7-8.2-4.1-2.5-7.4-8-12.8-15.1-14.8-12.3-3.5-25.4 4.5-29.2 17.9-0.6 3-3.2 4.8-6.1 4.8z" fill="#2919BC" p-id="1194"></path><path d="M487.5 384.3c9.3 5.8 16.2 14 20.6 24 3 6.8 12.9 0.9 9.9-5.8-5.1-11.7-13.8-21.4-24.7-28.2-6.3-3.8-12.1 6.1-5.8 10z" fill="#FFFFFF" p-id="1195"></path><path d="M413.2 313.1c9.8 5.3 15.7 15.2 15.4 26.4-0.2 7.4 11.3 7.4 11.5 0 0.3-15-7.9-29.2-21.1-36.3-6.5-3.6-12.3 6.4-5.8 9.9z" fill="#FFFFFF" p-id="1196"></path><path d="M394.5 286.1c-1 0.3-2 0.8-2.7 1.6-0.2 0.2-0.8 0.9-0.9 1.2-0.4 0.7-0.6 1.4-0.7 2.2-0.1 0.9-0.2 1.5 0.1 2.5 0.4 1.1 0.8 1.9 1.6 2.7 0.4 0.4 0.9 0.8 1.4 1 0.9 0.5 2 0.8 3 0.8 1.5 0 3.1-0.6 4.2-1.7 0.8-0.8 1.2-1.7 1.6-2.7 0.5-1.3 0.1-3.2-0.6-4.4-0.7-1.2-2.1-2.3-3.4-2.6-1.5-0.3-3.1-0.3-4.4 0.6l-1.2 0.9c-0.7 0.7-1.2 1.6-1.5 2.5v0.1c0.2-0.5 0.4-0.9 0.6-1.4v0.1l0.9-1.2 1.2-0.9c1-0.3 1.9-0.5 2.9-0.8h-0.1c0.5 0.1 1 0.1 1.5 0.2h-0.1c0.5 0.2 0.9 0.4 1.4 0.6 0 0-0.1 0-0.1-0.1l1.2 0.9c-0.1 0-0.1-0.1-0.2-0.2l0.9 1.2-0.1-0.1c0.2 0.5 0.4 0.9 0.6 1.4v-0.1c0.1 0.5 0.1 1 0.2 1.5v-0.1c-0.1 0.5-0.1 1-0.2 1.5v-0.1c-0.2 0.5-0.4 0.9-0.6 1.4l-0.9 1.2-1.2 0.9h0.1c-0.5 0.2-0.9 0.4-1.4 0.6h0.1c1.4-0.4 2.7-1.4 3.4-2.6 0.7-1.2 1-3 0.6-4.4-0.5-1.4-1.3-2.7-2.6-3.4-1.6-1-3.1-1.3-4.6-0.8z" fill="#FFFFFF" p-id="1197"></path><path d="M770.5 800.5c-0.9 0-1.8-0.2-2.7-0.6-3.3-1.5-4.7-5.4-3.2-8.6 11-23.9 12.6-66.2 12.7-68.4V582.1c0-3.6 2.9-6.5 6.5-6.5s6.5 2.9 6.5 6.5v141.1c-0.1 1.9-1.5 46.8-13.9 73.5a6.54 6.54 0 0 1-5.9 3.8z" fill="#2919BC" p-id="1198"></path><path d="M783.7 558.3c-3.6 0-6.5-2.9-6.5-6.5v-14.6c0-3.6 2.9-6.5 6.5-6.5s6.5 2.9 6.5 6.5v14.6c0 3.6-2.9 6.5-6.5 6.5z" fill="#2919BC" p-id="1199"></path><path d="M95.5 485.2m-8.3 0a8.3 8.3 0 1 0 16.6 0 8.3 8.3 0 1 0-16.6 0Z" fill="#2919BC" p-id="1200"></path><path d="M907 592.4m-8.3 0a8.3 8.3 0 1 0 16.6 0 8.3 8.3 0 1 0-16.6 0Z" fill="#2919BC" p-id="1201"></path><path d="M589.8 143.7m-8.3 0a8.3 8.3 0 1 0 16.6 0 8.3 8.3 0 1 0-16.6 0Z" fill="#2919BC" p-id="1202"></path><path d="M373.5 187m-8.3 0a8.3 8.3 0 1 0 16.6 0 8.3 8.3 0 1 0-16.6 0Z" fill="#2919BC" p-id="1203"></path><path d="M899.6 517.5c-3.7 0-7.1-1.4-9.7-4-5.4-5.4-5.4-14.1 0-19.4l7.1-7.1c2.6-2.6 6-4 9.7-4s7.1 1.4 9.7 4c2.6 2.6 4 6 4 9.7s-1.4 7.1-4 9.7l-7.1 7.1c-2.5 2.5-6 4-9.7 4z" fill="#15CE99" p-id="1204"></path><path d="M906.7 489.4c1.9 0 3.7 0.7 5.1 2.1 2.8 2.8 2.8 7.4 0 10.2l-7.1 7.1c-1.4 1.4-3.3 2.1-5.1 2.1-1.9 0-3.7-0.7-5.1-2.1-2.8-2.8-2.8-7.4 0-10.2l7.1-7.1c1.4-1.4 3.3-2.1 5.1-2.1m0-13c-5.4 0-10.5 2.1-14.3 5.9l-7.1 7.1c-7.9 7.9-7.9 20.7 0 28.6 3.8 3.8 8.9 5.9 14.3 5.9s10.5-2.1 14.3-5.9l7.1-7.1c3.8-3.8 5.9-8.9 5.9-14.3s-2.1-10.5-5.9-14.3c-3.8-3.8-8.8-5.9-14.3-5.9z" fill="#2919BC" p-id="1205"></path><path d="M263.2 261.5c-3.7 0-7.1-1.4-9.7-4l-7.1-7.1c-2.6-2.6-4-6-4-9.7s1.4-7.1 4-9.7c2.6-2.6 6-4 9.7-4s7.1 1.4 9.7 4l7.1 7.1c2.6 2.6 4 6 4 9.7s-1.4 7.1-4 9.7-6.1 4-9.7 4z" fill="#15CE99" p-id="1206"></path><path d="M256.1 233.4c1.9 0 3.7 0.7 5.1 2.1l7.1 7.1c2.8 2.8 2.8 7.4 0 10.2-1.4 1.4-3.3 2.1-5.1 2.1-1.9 0-3.7-0.7-5.1-2.1l-7.1-7.1c-2.8-2.8-2.8-7.4 0-10.2 1.3-1.4 3.2-2.1 5.1-2.1m0-13c-5.4 0-10.5 2.1-14.3 5.9-3.8 3.8-5.9 8.9-5.9 14.3s2.1 10.5 5.9 14.3l7.1 7.1c3.8 3.8 8.9 5.9 14.3 5.9s10.5-2.1 14.3-5.9c3.8-3.8 5.9-8.9 5.9-14.3s-2.1-10.5-5.9-14.3l-7.1-7.1c-3.9-3.8-8.9-5.9-14.3-5.9z" fill="#2919BC" p-id="1207"></path><path d="M704.5 187c-8.5 0-15.2-8.2-19.8-24.5-0.8-2.7-0.2-5.5 1.4-7.7 1.7-2.2 4.3-3.5 7-3.5 0.8 0 1.6 0.1 2.4 0.3 14.2 4 22.3 9.6 24.1 16.7 0.9 3.3 0.8 8.4-4.6 13.7-3.1 3.4-6.7 5-10.5 5z" fill="#FFFFFF" p-id="1208"></path><path d="M693.2 157.8c0.2 0 0.4 0 0.6 0.1 8.4 2.4 27.1 9.1 16.7 19.5-2.2 2.2-4.2 3.1-6 3.1-7 0-11.6-13.1-13.5-19.8-0.4-1.5 0.8-2.9 2.2-2.9m0-13c-4.8 0-9.3 2.3-12.2 6.1-2.9 3.9-3.8 8.7-2.5 13.4 1.1 4 3.1 10 5.9 15.1 6.4 11.7 14.5 14.1 20.1 14.1 3.8 0 9.5-1.2 15.2-6.9 7.9-7.9 7.3-15.9 6.3-19.9-2.5-9.6-11.9-16.5-28.6-21.3-1.4-0.4-2.8-0.6-4.2-0.6z" fill="#2919BC" p-id="1209"></path><path d="M163.9 670.7c-6.9 0-12.6-5.6-12.6-12.6s5.6-12.6 12.6-12.6c6.9 0 12.6 5.6 12.6 12.6s-5.7 12.6-12.6 12.6z" fill="#FFC55F" p-id="1210"></path><path d="M163.9 652c3.4 0 6.1 2.7 6.1 6.1 0 3.4-2.7 6.1-6.1 6.1s-6.1-2.7-6.1-6.1c0-3.3 2.7-6.1 6.1-6.1m0-13c-10.5 0-19.1 8.6-19.1 19.1s8.6 19.1 19.1 19.1 19.1-8.6 19.1-19.1-8.6-19.1-19.1-19.1z" fill="#2919BC" p-id="1211"></path><path d="M288.2 579.5m-31.5 0a31.5 31.5 0 1 0 63 0 31.5 31.5 0 1 0-63 0Z" fill="#FF398A" p-id="1212"></path><path d="M467 579.5m-31.5 0a31.5 31.5 0 1 0 63 0 31.5 31.5 0 1 0-63 0Z" fill="#FF398A" p-id="1213"></path><path d="M461.4 556.4c-18.7 0-34-15.2-34-34s15.2-34 34-34 34 15.2 34 34-15.3 34-34 34z" fill="#FFFFFF" p-id="1214"></path><path d="M461.4 495c15.2 0 27.5 12.3 27.5 27.5S476.6 550 461.4 550s-27.5-12.3-27.5-27.5 12.3-27.5 27.5-27.5m0-13c-22.3 0-40.5 18.2-40.5 40.5s18.2 40.5 40.5 40.5 40.5-18.2 40.5-40.5-18.2-40.5-40.5-40.5z" fill="#2919BC" p-id="1215"></path><path d="M467 520.9m-16.3 0a16.3 16.3 0 1 0 32.6 0 16.3 16.3 0 1 0-32.6 0Z" fill="#2919BC" p-id="1216"></path><path d="M294.8 557.1c-18.7 0-34-15.2-34-34s15.2-34 34-34 34 15.2 34 34-15.3 34-34 34z" fill="#FFFFFF" p-id="1217"></path><path d="M294.8 495.7c15.2 0 27.5 12.3 27.5 27.5s-12.3 27.5-27.5 27.5-27.5-12.3-27.5-27.5 12.3-27.5 27.5-27.5m0-13c-22.3 0-40.5 18.2-40.5 40.5s18.2 40.5 40.5 40.5 40.5-18.2 40.5-40.5-18.2-40.5-40.5-40.5z" fill="#2919BC" p-id="1218"></path><path d="M300.5 522.4m-16.3 0a16.3 16.3 0 1 0 32.6 0 16.3 16.3 0 1 0-32.6 0Z" fill="#2919BC" p-id="1219"></path><path d="M473.5 523.9c7.4 0 7.4-11.5 0-11.5s-7.4 11.5 0 11.5z" fill="#FFFFFF" p-id="1220"></path><path d="M308 525.4c7.4 0 7.4-11.5 0-11.5s-7.4 11.5 0 11.5z" fill="#FFFFFF" p-id="1221"></path><path d="M694.6 579.5H430.1v98.1h264.5" fill="#FF999E" p-id="1222"></path><path d="M694.6 684.1H430.1c-3.6 0-6.5-2.9-6.5-6.5v-98.1c0-3.6 2.9-6.5 6.5-6.5h264.5c3.6 0 6.5 2.9 6.5 6.5s-2.9 6.5-6.5 6.5h-258v85.1h258c3.6 0 6.5 2.9 6.5 6.5s-2.9 6.5-6.5 6.5z" fill="#2919BC" p-id="1223"></path><path d="M463.4 579.5h-43.7c-8.7 0-14.1 5.5-14.1 12.3 0 6.7 5.5 12.3 14.1 12.3h28.7" fill="#FF999E" p-id="1224"></path><path d="M448.4 610.5h-28.7c-11.8 0-20.6-8.1-20.6-18.8s8.9-18.8 20.6-18.8h43.7c3.6 0 6.5 2.9 6.5 6.5s-2.9 6.5-6.5 6.5h-43.7c-4.6 0-7.6 2.3-7.6 5.8s3.1 5.8 7.6 5.8h28.7c3.6 0 6.5 2.9 6.5 6.5s-3 6.5-6.5 6.5z" fill="#2919BC" p-id="1225"></path><path d="M438.4 604h-28.7c-8.7 0-14.1 5.5-14.1 12.3 0 6.7 5.5 12.3 14.1 12.3h28.7" fill="#FF999E" p-id="1226"></path><path d="M438.4 635h-28.7c-11.8 0-20.6-8.1-20.6-18.8s8.9-18.8 20.6-18.8h28.7c3.6 0 6.5 2.9 6.5 6.5s-2.9 6.5-6.5 6.5h-28.7c-4.6 0-7.6 2.3-7.6 5.8s3.1 5.8 7.6 5.8h28.7c3.6 0 6.5 2.9 6.5 6.5s-3 6.5-6.5 6.5z" fill="#2919BC" p-id="1227"></path><path d="M438.4 628.5h-28.7c-8.7 0-14.1 5.5-14.1 12.3 0 6.7 5.5 12.3 14.1 12.3h28.7" fill="#FF999E" p-id="1228"></path><path d="M438.4 659.6h-28.7c-11.8 0-20.6-8.1-20.6-18.8S398 622 409.7 622h28.7c3.6 0 6.5 2.9 6.5 6.5s-2.9 6.5-6.5 6.5h-28.7c-4.6 0-7.6 2.3-7.6 5.8s3.1 5.8 7.6 5.8h28.7c3.6 0 6.5 2.9 6.5 6.5s-3 6.5-6.5 6.5z" fill="#2919BC" p-id="1229"></path><path d="M448.4 653.1h-28.7c-8.7 0-14.1 5.5-14.1 12.3 0 6.7 5.5 12.3 14.1 12.3h43.7" fill="#FF999E" p-id="1230"></path><path d="M463.4 684.1h-43.7c-11.8 0-20.6-8.1-20.6-18.8s8.9-18.8 20.6-18.8h28.7c3.6 0 6.5 2.9 6.5 6.5s-2.9 6.5-6.5 6.5h-28.7c-4.6 0-7.6 2.3-7.6 5.8s3.1 5.8 7.6 5.8h43.7c3.6 0 6.5 2.9 6.5 6.5s-3 6.5-6.5 6.5z" fill="#2919BC" p-id="1231"></path><path d="M760.8 394.4m-31.5 0a31.5 31.5 0 1 0 63 0 31.5 31.5 0 1 0-63 0Z" fill="#FF3B61" p-id="1232"></path><path d="M546.5 346.2m-34 0a34 34 0 1 0 68 0 34 34 0 1 0-68 0Z" fill="#FFFFFF" p-id="1233"></path><path d="M546.5 318.7c15.2 0 27.5 12.3 27.5 27.5s-12.3 27.5-27.5 27.5-27.5-12.3-27.5-27.5c0.1-15.2 12.4-27.5 27.5-27.5m0-13c-22.3 0-40.5 18.2-40.5 40.5s18.2 40.5 40.5 40.5 40.5-18.2 40.5-40.5-18.2-40.5-40.5-40.5z" fill="#2919BC" p-id="1234"></path><path d="M541 344.7m-16.3 0a16.3 16.3 0 1 0 32.6 0 16.3 16.3 0 1 0-32.6 0Z" fill="#2919BC" p-id="1235"></path><path d="M736.5 346.2m-34 0a34 34 0 1 0 68 0 34 34 0 1 0-68 0Z" fill="#FFFFFF" p-id="1236"></path><path d="M736.5 318.7c15.2 0 27.5 12.3 27.5 27.5s-12.3 27.5-27.5 27.5-27.5-12.3-27.5-27.5 12.3-27.5 27.5-27.5m0-13c-22.3 0-40.5 18.2-40.5 40.5s18.2 40.5 40.5 40.5 40.5-18.2 40.5-40.5-18.2-40.5-40.5-40.5z" fill="#2919BC" p-id="1237"></path><path d="M730.9 344.7m-16.3 0a16.3 16.3 0 1 0 32.6 0 16.3 16.3 0 1 0-32.6 0Z" fill="#2919BC" p-id="1238"></path><path d="M534.5 348.9c7.4 0 7.4-11.5 0-11.5s-7.4 11.5 0 11.5z" fill="#FFFFFF" p-id="1239"></path><path d="M723.7 348.9c7.4 0 7.4-11.5 0-11.5s-7.4 11.5 0 11.5z" fill="#FFFFFF" p-id="1240"></path><path d="M698.2 396.7H588.6v0.1c-1.2-0.1-2.4-0.1-3.6-0.1-37.3 0-67.5 30.2-67.5 67.5s30.2 67.5 67.5 67.5c23.4 0 44-11.9 56.1-29.9 12.1 18 32.7 29.9 56.1 29.9 37.3 0 67.5-30.2 67.5-67.5 0-36.9-29.7-67-66.5-67.5z" fill="#FF3B57" p-id="1241"></path><path d="M697.2 538.3c-21.7 0-42.1-9.5-56.1-25.7-14 16.2-34.4 25.7-56.1 25.7-40.8 0-74-33.2-74-74s33.2-74 74-74c0.9 0 1.8 0 2.7 0.1 0.3 0 0.6-0.1 0.8-0.1h110.1c19.4 0.4 37.6 8.2 51.2 22 13.8 13.9 21.3 32.4 21.3 52 0.1 40.8-33.1 74-73.9 74z m-56.1-43c2.2 0 4.2 1.1 5.4 2.9 11.4 16.9 30.3 27 50.7 27 33.7 0 61-27.4 61-61 0-33.2-27-60.6-60.2-61H589.7c-0.5 0.1-1 0.1-1.5 0.1-1.2-0.1-2.2-0.1-3.2-0.1-33.7 0-61 27.4-61 61s27.4 61 61 61c20.4 0 39.3-10.1 50.7-27 1.2-1.8 3.2-2.9 5.4-2.9z" fill="#2919BC" p-id="1242"></path><path d="M706.3 467.1m-18.2 0a18.2 18.2 0 1 0 36.4 0 18.2 18.2 0 1 0-36.4 0Z" fill="#FFAEB4" p-id="1243"></path><path d="M706.3 492.7c-14.2 0-25.7-11.5-25.7-25.7s11.5-25.7 25.7-25.7S732 452.8 732 467s-11.5 25.7-25.7 25.7z m0-36.3c-5.9 0-10.7 4.8-10.7 10.7 0 5.9 4.8 10.7 10.7 10.7 5.9 0 10.7-4.8 10.7-10.7 0-5.9-4.8-10.7-10.7-10.7z" fill="#2919BC" p-id="1244"></path><path d="M574.7 467.1m-18.2 0a18.2 18.2 0 1 0 36.4 0 18.2 18.2 0 1 0-36.4 0Z" fill="#FFAEB4" p-id="1245"></path><path d="M574.7 492.7c-14.2 0-25.7-11.5-25.7-25.7s11.5-25.7 25.7-25.7 25.7 11.5 25.7 25.7-11.5 25.7-25.7 25.7z m0-36.3c-5.9 0-10.7 4.8-10.7 10.7 0 5.9 4.8 10.7 10.7 10.7 5.9 0 10.7-4.8 10.7-10.7 0-5.9-4.8-10.7-10.7-10.7z" fill="#2919BC" p-id="1246"></path><path d="M422.2 677.9h220.1V776H414.5" fill="#DCFFF5" p-id="1247"></path><path d="M642.3 782.5H414.5c-3.6 0-6.5-2.9-6.5-6.5s2.9-6.5 6.5-6.5h221.2v-85.1H422.2c-3.6 0-6.5-2.9-6.5-6.5s2.9-6.5 6.5-6.5h220c3.6 0 6.5 2.9 6.5 6.5V776c0.1 3.6-2.9 6.5-6.4 6.5z" fill="#2919BC" p-id="1248"></path><path d="M609 677.9h43.7c8.7 0 14.1 5.5 14.1 12.3 0 6.7-5.5 12.3-14.1 12.3H624" fill="#DCFFF5" p-id="1249"></path><path d="M652.7 708.9H624c-3.6 0-6.5-2.9-6.5-6.5s2.9-6.5 6.5-6.5h28.7c4.6 0 7.6-2.3 7.6-5.8s-3.1-5.8-7.6-5.8H609c-3.6 0-6.5-2.9-6.5-6.5s2.9-6.5 6.5-6.5h43.7c11.8 0 20.6 8.1 20.6 18.8s-8.8 18.8-20.6 18.8z" fill="#2919BC" p-id="1250"></path><path d="M634 702.4h28.7c8.7 0 14.1 5.5 14.1 12.3 0 6.7-5.5 12.3-14.1 12.3H634" fill="#DCFFF5" p-id="1251"></path><path d="M662.7 733.4H634c-3.6 0-6.5-2.9-6.5-6.5s2.9-6.5 6.5-6.5h28.7c4.6 0 7.6-2.3 7.6-5.8s-3.1-5.8-7.6-5.8H634c-3.6 0-6.5-2.9-6.5-6.5s2.9-6.5 6.5-6.5h28.7c11.8 0 20.6 8.1 20.6 18.8s-8.8 18.8-20.6 18.8z" fill="#2919BC" p-id="1252"></path><path d="M634 726.9h28.7c8.7 0 14.1 5.5 14.1 12.3 0 6.7-5.5 12.3-14.1 12.3H634" fill="#DCFFF5" p-id="1253"></path><path d="M662.7 758H634c-3.6 0-6.5-2.9-6.5-6.5s2.9-6.5 6.5-6.5h28.7c4.6 0 7.6-2.3 7.6-5.8s-3.1-5.8-7.6-5.8H634c-3.6 0-6.5-2.9-6.5-6.5s2.9-6.5 6.5-6.5h28.7c11.8 0 20.6 8.1 20.6 18.8s-8.8 18.8-20.6 18.8z" fill="#2919BC" p-id="1254"></path><path d="M624 751.5h28.7c8.7 0 14.1 5.5 14.1 12.3 0 6.7-5.5 12.3-14.1 12.3H609" fill="#DCFFF5" p-id="1255"></path><path d="M652.7 782.5H609c-3.6 0-6.5-2.9-6.5-6.5s2.9-6.5 6.5-6.5h43.7c4.6 0 7.6-2.3 7.6-5.8s-3.1-5.8-7.6-5.8H624c-3.6 0-6.5-2.9-6.5-6.5s2.9-6.5 6.5-6.5h28.7c11.8 0 20.6 8.1 20.6 18.8s-8.8 18.8-20.6 18.8z" fill="#2919BC" p-id="1256"></path></svg>