<?xml version="1.0" encoding="UTF-8"?>
<svg width="1440px" height="1024px" viewBox="0 0 1440 1024" version="1.1" xmlns="http://www.w3.org/2000/svg" xmlns:xlink="http://www.w3.org/1999/xlink">
    <!-- Generator: Sketch 53.2 (72643) - https://sketchapp.com -->
    <title>Finance</title>
    <desc>Created with Sketch.</desc>
    <defs>
        <linearGradient x1="36.5293971%" y1="64.7346345%" x2="85.9940256%" y2="36.9215973%" id="linearGradient-1">
            <stop stop-color="#FF6E6E" offset="0%"></stop>
            <stop stop-color="#FF6E6E" offset="100%"></stop>
        </linearGradient>
        <linearGradient x1="35.978653%" y1="100%" x2="54.8209338%" y2="31.6413311%" id="linearGradient-2">
            <stop stop-color="#D1BCFF" offset="0%"></stop>
            <stop stop-color="#A587FF" offset="100%"></stop>
        </linearGradient>
    </defs>
    <g id="Finance" stroke="none" stroke-width="1" fill="none" fill-rule="evenodd">
        <rect fill="#FFFFFF" x="0" y="0" width="1440" height="1024"></rect>
        <g id="Ornament" transform="translate(217.000000, 87.000000)">
            <circle id="Shape" fill="#CCF2FF" cx="272" cy="272" r="272"></circle>
            <path d="M793,747 L948.053975,747 C1001.6256,747 1045.05397,790.428379 1045.05397,844 L890,844 C836.428379,844 793,800.571621 793,747 Z" id="Shape" fill="#A587FF"></path>
            <path d="M1046.04407,843.533784 C1046.04407,758.341751 1046.04407,650.636183 1046.04407,595 C976.984136,595 921,650.636183 921,719.266892 C921,787.897601 976.984136,843.533784 1046.04407,843.533784 Z" id="Shape" fill="#66D4FF"></path>
            <path d="M575.817615,791.579399 C575.817615,794.01417 573.843724,795.987942 571.408807,795.987942 C568.97389,795.987942 567,794.01417 567,791.579399 C567,789.144628 568.97389,787.170856 571.408807,787.170856 C573.843724,787.170856 575.817615,789.144628 575.817615,791.579399 Z M575.817615,773.945228 C575.817615,776.379999 573.843724,778.353771 571.408807,778.353771 C568.97389,778.353771 567,776.379999 567,773.945228 C567,771.510457 568.97389,769.536685 571.408807,769.536685 C573.843724,769.536685 575.817615,771.510457 575.817615,773.945228 Z M575.817615,756.311057 C575.817615,758.745828 573.843724,760.719599 571.408807,760.719599 C568.97389,760.719599 567,758.745828 567,756.311057 C567,753.876286 568.97389,751.902514 571.408807,751.902514 C573.843724,751.902514 575.817615,753.876286 575.817615,756.311057 Z M575.817615,738.676885 C575.817615,741.111656 573.843724,743.085428 571.408807,743.085428 C568.97389,743.085428 567,741.111656 567,738.676885 C567,736.242114 568.97389,734.268343 571.408807,734.268343 C573.843724,734.268343 575.817615,736.242114 575.817615,738.676885 Z M575.817615,721.042714 C575.817615,723.477485 573.843724,725.451257 571.408807,725.451257 C568.97389,725.451257 567,723.477485 567,721.042714 C567,718.607943 568.97389,716.634171 571.408807,716.634171 C573.843724,716.634171 575.817615,718.607943 575.817615,721.042714 Z M575.817615,703.408543 C575.817615,705.843314 573.843724,707.817086 571.408807,707.817086 C568.97389,707.817086 567,705.843314 567,703.408543 C567,700.973772 568.97389,699 571.408807,699 C573.843724,699 575.817615,700.973772 575.817615,703.408543 Z M593.452844,791.579399 C593.452844,794.01417 591.478954,795.987942 589.044037,795.987942 C586.609119,795.987942 584.635229,794.01417 584.635229,791.579399 C584.635229,789.144628 586.609119,787.170856 589.044037,787.170856 C591.478954,787.170856 593.452844,789.144628 593.452844,791.579399 Z M593.452844,773.945228 C593.452844,776.379999 591.478954,778.353771 589.044037,778.353771 C586.609119,778.353771 584.635229,776.379999 584.635229,773.945228 C584.635229,771.510457 586.609119,769.536685 589.044037,769.536685 C591.478954,769.536685 593.452844,771.510457 593.452844,773.945228 Z M593.452844,756.311057 C593.452844,758.745828 591.478954,760.719599 589.044037,760.719599 C586.609119,760.719599 584.635229,758.745828 584.635229,756.311057 C584.635229,753.876286 586.609119,751.902514 589.044037,751.902514 C591.478954,751.902514 593.452844,753.876286 593.452844,756.311057 Z M593.452844,738.676885 C593.452844,741.111656 591.478954,743.085428 589.044037,743.085428 C586.609119,743.085428 584.635229,741.111656 584.635229,738.676885 C584.635229,736.242114 586.609119,734.268343 589.044037,734.268343 C591.478954,734.268343 593.452844,736.242114 593.452844,738.676885 Z M593.452844,721.042714 C593.452844,723.477485 591.478954,725.451257 589.044037,725.451257 C586.609119,725.451257 584.635229,723.477485 584.635229,721.042714 C584.635229,718.607943 586.609119,716.634171 589.044037,716.634171 C591.478954,716.634171 593.452844,718.607943 593.452844,721.042714 Z M593.452844,703.408543 C593.452844,705.843314 591.478954,707.817086 589.044037,707.817086 C586.609119,707.817086 584.635229,705.843314 584.635229,703.408543 C584.635229,700.973772 586.609119,699 589.044037,699 C591.478954,699 593.452844,700.973772 593.452844,703.408543 Z M611.088073,791.579399 C611.088073,794.01417 609.114183,795.987942 606.679266,795.987942 C604.244349,795.987942 602.270458,794.01417 602.270458,791.579399 C602.270458,789.144628 604.244349,787.170856 606.679266,787.170856 C609.114183,787.170856 611.088073,789.144628 611.088073,791.579399 Z M611.088073,773.945228 C611.088073,776.379999 609.114183,778.353771 606.679266,778.353771 C604.244349,778.353771 602.270458,776.379999 602.270458,773.945228 C602.270458,771.510457 604.244349,769.536685 606.679266,769.536685 C609.114183,769.536685 611.088073,771.510457 611.088073,773.945228 Z M611.088073,756.311057 C611.088073,758.745828 609.114183,760.719599 606.679266,760.719599 C604.244349,760.719599 602.270458,758.745828 602.270458,756.311057 C602.270458,753.876286 604.244349,751.902514 606.679266,751.902514 C609.114183,751.902514 611.088073,753.876286 611.088073,756.311057 Z M611.088073,738.676885 C611.088073,741.111656 609.114183,743.085428 606.679266,743.085428 C604.244349,743.085428 602.270458,741.111656 602.270458,738.676885 C602.270458,736.242114 604.244349,734.268343 606.679266,734.268343 C609.114183,734.268343 611.088073,736.242114 611.088073,738.676885 Z M611.088073,721.042714 C611.088073,723.477485 609.114183,725.451257 606.679266,725.451257 C604.244349,725.451257 602.270458,723.477485 602.270458,721.042714 C602.270458,718.607943 604.244349,716.634171 606.679266,716.634171 C609.114183,716.634171 611.088073,718.607943 611.088073,721.042714 Z M611.088073,703.408543 C611.088073,705.843314 609.114183,707.817086 606.679266,707.817086 C604.244349,707.817086 602.270458,705.843314 602.270458,703.408543 C602.270458,700.973772 604.244349,699 606.679266,699 C609.114183,699 611.088073,700.973772 611.088073,703.408543 Z M628.723302,791.579399 C628.723302,794.01417 626.749412,795.987942 624.314495,795.987942 C621.879578,795.987942 619.905688,794.01417 619.905688,791.579399 C619.905688,789.144628 621.879578,787.170856 624.314495,787.170856 C626.749412,787.170856 628.723302,789.144628 628.723302,791.579399 Z M628.723302,773.945228 C628.723302,776.379999 626.749412,778.353771 624.314495,778.353771 C621.879578,778.353771 619.905688,776.379999 619.905688,773.945228 C619.905688,771.510457 621.879578,769.536685 624.314495,769.536685 C626.749412,769.536685 628.723302,771.510457 628.723302,773.945228 Z M628.723302,756.311057 C628.723302,758.745828 626.749412,760.719599 624.314495,760.719599 C621.879578,760.719599 619.905688,758.745828 619.905688,756.311057 C619.905688,753.876286 621.879578,751.902514 624.314495,751.902514 C626.749412,751.902514 628.723302,753.876286 628.723302,756.311057 Z M628.723302,738.676885 C628.723302,741.111656 626.749412,743.085428 624.314495,743.085428 C621.879578,743.085428 619.905688,741.111656 619.905688,738.676885 C619.905688,736.242114 621.879578,734.268343 624.314495,734.268343 C626.749412,734.268343 628.723302,736.242114 628.723302,738.676885 Z M628.723302,721.042714 C628.723302,723.477485 626.749412,725.451257 624.314495,725.451257 C621.879578,725.451257 619.905688,723.477485 619.905688,721.042714 C619.905688,718.607943 621.879578,716.634171 624.314495,716.634171 C626.749412,716.634171 628.723302,718.607943 628.723302,721.042714 Z M628.723302,703.408543 C628.723302,705.843314 626.749412,707.817086 624.314495,707.817086 C621.879578,707.817086 619.905688,705.843314 619.905688,703.408543 C619.905688,700.973772 621.879578,699 624.314495,699 C626.749412,699 628.723302,700.973772 628.723302,703.408543 Z M646.358531,791.579399 C646.358531,794.01417 644.384641,795.987942 641.949724,795.987942 C639.514807,795.987942 637.540917,794.01417 637.540917,791.579399 C637.540917,789.144628 639.514807,787.170856 641.949724,787.170856 C644.384641,787.170856 646.358531,789.144628 646.358531,791.579399 Z M646.358531,773.945228 C646.358531,776.379999 644.384641,778.353771 641.949724,778.353771 C639.514807,778.353771 637.540917,776.379999 637.540917,773.945228 C637.540917,771.510457 639.514807,769.536685 641.949724,769.536685 C644.384641,769.536685 646.358531,771.510457 646.358531,773.945228 Z M646.358531,756.311057 C646.358531,758.745828 644.384641,760.719599 641.949724,760.719599 C639.514807,760.719599 637.540917,758.745828 637.540917,756.311057 C637.540917,753.876286 639.514807,751.902514 641.949724,751.902514 C644.384641,751.902514 646.358531,753.876286 646.358531,756.311057 Z M646.358531,738.676885 C646.358531,741.111656 644.384641,743.085428 641.949724,743.085428 C639.514807,743.085428 637.540917,741.111656 637.540917,738.676885 C637.540917,736.242114 639.514807,734.268343 641.949724,734.268343 C644.384641,734.268343 646.358531,736.242114 646.358531,738.676885 Z M646.358531,721.042714 C646.358531,723.477485 644.384641,725.451257 641.949724,725.451257 C639.514807,725.451257 637.540917,723.477485 637.540917,721.042714 C637.540917,718.607943 639.514807,716.634171 641.949724,716.634171 C644.384641,716.634171 646.358531,718.607943 646.358531,721.042714 Z M646.358531,703.408543 C646.358531,705.843314 644.384641,707.817086 641.949724,707.817086 C639.514807,707.817086 637.540917,705.843314 637.540917,703.408543 C637.540917,700.973772 639.514807,699 641.949724,699 C644.384641,699 646.358531,700.973772 646.358531,703.408543 Z M663.993761,791.579399 C663.993761,794.01417 662.01987,795.987942 659.584953,795.987942 C657.150036,795.987942 655.176146,794.01417 655.176146,791.579399 C655.176146,789.144628 657.150036,787.170856 659.584953,787.170856 C662.01987,787.170856 663.993761,789.144628 663.993761,791.579399 Z M663.993761,773.945228 C663.993761,776.379999 662.01987,778.353771 659.584953,778.353771 C657.150036,778.353771 655.176146,776.379999 655.176146,773.945228 C655.176146,771.510457 657.150036,769.536685 659.584953,769.536685 C662.01987,769.536685 663.993761,771.510457 663.993761,773.945228 Z M663.993761,756.311057 C663.993761,758.745828 662.01987,760.719599 659.584953,760.719599 C657.150036,760.719599 655.176146,758.745828 655.176146,756.311057 C655.176146,753.876286 657.150036,751.902514 659.584953,751.902514 C662.01987,751.902514 663.993761,753.876286 663.993761,756.311057 Z M663.993761,738.676885 C663.993761,741.111656 662.01987,743.085428 659.584953,743.085428 C657.150036,743.085428 655.176146,741.111656 655.176146,738.676885 C655.176146,736.242114 657.150036,734.268343 659.584953,734.268343 C662.01987,734.268343 663.993761,736.242114 663.993761,738.676885 Z M663.993761,721.042714 C663.993761,723.477485 662.01987,725.451257 659.584953,725.451257 C657.150036,725.451257 655.176146,723.477485 655.176146,721.042714 C655.176146,718.607943 657.150036,716.634171 659.584953,716.634171 C662.01987,716.634171 663.993761,718.607943 663.993761,721.042714 Z M663.993761,703.408543 C663.993761,705.843314 662.01987,707.817086 659.584953,707.817086 C657.150036,707.817086 655.176146,705.843314 655.176146,703.408543 C655.176146,700.973772 657.150036,699 659.584953,699 C662.01987,699 663.993761,700.973772 663.993761,703.408543 Z" id="Shape" fill="#CDCBDF"></path>
        </g>
        <g id="Plant" transform="translate(124.000000, 321.000000)">
            <path d="M199,188.174269 C142.719017,213.593114 97.7234642,213.271218 64.0133428,187.20858 C30.3032215,161.145943 8.96544052,124.033496 0,75.8712405 C105.372053,44.2283274 171.705387,81.6626704 199,188.174269 Z" id="Shape" fill="url(#linearGradient-1)"></path>
            <path d="M115.89853,142.470656 C103.751316,135.579494 90.2443015,127.943142 75.3776565,119.561698 L40.892016,127.819418 C40.2802333,127.965912 39.665953,127.586943 39.5199824,126.972968 C39.3740118,126.358992 39.7516271,125.742511 40.3634098,125.596017 L72.451652,117.912363 C53.8970542,107.455192 33.2742461,95.8646208 10.5835455,83.1408384 C10.0344845,82.8329531 9.83808165,82.1366657 10.1448674,81.5856369 C10.4516531,81.0346081 11.145454,80.8375013 11.694515,81.1453866 C53.1251551,104.377567 87.6617264,123.831731 115.306161,139.509018 L111.739126,104.426202 C111.584986,102.910198 113.850871,102.678161 114.00501,104.194164 L117.735765,140.887202 C154.592735,161.79948 178.829942,175.796159 190.452172,182.880068 C190.989749,183.207729 191.160869,183.910705 190.834378,184.450209 C190.507888,184.989712 189.807422,185.161445 189.269845,184.833785 C182.315586,180.595068 170.826387,173.871062 154.803279,164.662373 C154.761111,164.684157 154.717118,164.703541 154.671409,164.720293 L123.156017,176.270705 C122.565224,176.487231 121.91139,176.182112 121.695637,175.589201 C121.479885,174.996291 121.783915,174.340113 122.374708,174.123587 L152.226934,163.182727 C141.98523,157.304619 129.997135,150.469451 116.262897,142.67737 C116.130357,142.632944 116.00606,142.56433 115.89853,142.470656 Z" id="Shape" fill="#FFFFFF" fill-rule="nonzero"></path>
            <path d="M186.397111,220 C128.543838,198.081935 96.8676044,166.008613 91.3684105,123.780034 C85.8692165,81.5514554 96.9446186,40.291444 124.594617,0 C221.65003,52.2763031 242.250861,125.609636 186.397111,220 Z" id="Shape" fill="url(#linearGradient-2)"></path>
            <path d="M162.563708,129.304978 C173.864256,170.239804 181.123492,197.331633 184.342806,210.585861 C184.491713,211.198925 184.118297,211.817323 183.508757,211.967091 C182.899218,212.116859 182.284375,211.741283 182.135469,211.128219 C180.209165,203.19744 176.830716,190.29204 172.000421,172.413182 C171.955362,172.398663 171.910703,172.381154 171.866683,172.360566 L141.515869,158.165964 C140.946908,157.899869 140.700146,157.220256 140.96471,156.648004 C141.229275,156.075753 141.904981,155.827563 142.473943,156.093658 L171.223049,169.539167 C168.130029,158.116906 164.47778,144.778947 160.266374,129.525569 C160.204104,129.400123 160.16465,129.263425 160.154641,129.120906 C156.429503,115.630464 152.268924,100.648399 147.672953,84.1749033 L117.541306,65.5450292 C117.006764,65.2145312 116.839813,64.5107721 117.168411,63.9731392 C117.497009,63.4355063 118.196722,63.2675903 118.731264,63.5980883 L146.768197,80.932837 C141.029686,60.375216 134.628875,37.5488955 127.565857,12.4542334 C127.394949,11.8470023 127.745829,11.2153946 128.349569,11.0434981 C128.953309,10.8716016 129.581285,11.22451 129.752193,11.8317411 C142.64846,57.6517416 153.337053,95.9093719 161.818533,126.60681 L183.96233,99.2732765 C184.919211,98.0921359 186.680736,99.5357572 185.723855,100.716898 L162.563708,129.304978 Z" id="Shape" fill="#FFFFFF" fill-rule="nonzero"></path>
            <path d="M244,259.562526 C196.223838,298.760152 152.710901,310.14864 113.461189,293.727992 C74.2114767,277.307343 44.0577471,246.99163 23,202.780852 C116.556202,144.804099 190.222869,163.731324 244,259.562526 Z" id="Shape" fill="#211D41"></path>
            <path d="M153.169327,234.117219 C194.134683,244.712951 221.136641,251.916434 234.18055,255.729153 C234.783886,255.905508 235.130224,256.538261 234.954118,257.142447 C234.778012,257.746634 234.146149,258.09346 233.542813,257.917105 C225.737881,255.635733 212.91513,252.1352 195.075714,247.415825 C195.040625,247.447727 195.003156,247.477791 194.963353,247.505765 L167.519981,266.793099 C167.005523,267.154663 166.29578,267.030129 165.934725,266.514946 C165.57367,265.999763 165.698028,265.289019 166.212486,264.927456 L192.207586,246.657974 C180.806972,243.649068 167.474018,240.170685 152.208998,236.222899 C152.069616,236.214438 151.931956,236.180546 151.804023,236.118173 C138.303048,232.627071 123.297489,228.770425 106.787534,224.548288 L75.6285754,241.433553 C75.0758088,241.733101 74.3852129,241.527196 74.0860862,240.97365 C73.7869596,240.420104 73.9925754,239.728535 74.545342,239.428987 L103.538169,223.717564 C82.9334951,218.451367 60.0404012,212.629201 34.8592418,206.251166 C34.2499177,206.096833 33.8808986,205.47707 34.0350147,204.866887 C34.1891308,204.256704 34.8080214,203.887165 35.4173455,204.041498 C81.3952802,215.687066 119.745108,225.479396 150.468989,233.419087 L137.984634,200.55283 C137.445158,199.132608 139.572492,198.322254 140.111968,199.742476 L153.169327,234.117219 Z" id="Shape" fill="#FFFFFF" fill-rule="nonzero"></path>
        </g>
        <g id="Credit-Card" transform="translate(173.902818, 576.196353)">
            <path d="M12,-2.8449465e-14 L588.097182,-2.66731082e-14 C594.724599,-2.78943535e-14 600.097182,5.372583 600.097182,12 L600.097182,348.168303 C600.097182,354.79572 594.724599,360.168303 588.097182,360.168303 L12,360.168303 C5.372583,360.168303 -2.49245069e-13,354.79572 -2.82440737e-13,348.168303 L-2.82440737e-13,12 C-2.83217894e-13,5.372583 5.372583,-2.54518628e-14 12,-2.8449465e-14 Z" id="Shape" fill="#A587FF"></path>
            <polygon id="Shape" fill="#211D41" points="-2.84217094e-13 60.0280505 600.097182 60.0280505 600.097182 132.061711 -2.84217094e-13 132.061711"></polygon>
            <path d="M48.0077745,234.109397 L144.023324,234.109397 L144.023324,258.120617 L48.0077745,258.120617 L48.0077745,234.109397 Z M48.0077745,288.134642 L120.019436,288.134642 L120.019436,312.145863 L48.0077745,312.145863 L48.0077745,288.134642 Z M168.027211,234.109397 L288.046647,234.109397 L288.046647,258.120617 L168.027211,258.120617 L168.027211,234.109397 Z M144.023324,288.134642 L228.036929,288.134642 L228.036929,312.145863 L144.023324,312.145863 L144.023324,288.134642 Z" id="Shape" fill="#E1DAFE"></path>
            <ellipse id="Shape" fill="#FDE7E9" cx="457.274052" cy="274.928471" rx="40.8066084" ry="40.8190743"></ellipse>
            <ellipse id="Shape" fill="#FFA1A1" cx="498.080661" cy="274.928471" rx="40.8066084" ry="40.8190743"></ellipse>
        </g>
        <g id="Tab" transform="translate(489.000000, 175.000000)">
            <path d="M20,2.27373675e-13 L780,2.27373675e-13 C791.045695,2.25344614e-13 800,8.954305 800,20 L800,580 C800,591.045695 791.045695,600 780,600 L20,600 C8.954305,600 1.3527075e-15,591.045695 0,580 L0,20 C-1.3527075e-15,8.954305 8.954305,2.29402737e-13 20,2.27373675e-13 Z" id="Shape" fill="#FDE7E9"></path>
            <path d="M40,400 L376,400 L376,560 L40,560 L40,400 Z M416,400 L795,400 L795,560 L416,560 L416,400 Z" id="Shape" fill="#FFFFFF"></path>
            <path d="M110,527 C82.3857625,527 60,504.614237 60,477 C60,449.385763 82.3857625,427 110,427 C137.614237,427 160,449.385763 160,477 C160,504.614237 137.614237,527 110,527 Z M183,427 L256,427 L256,447 L183,447 L183,427 Z M183,507 L356,507 L356,527 L183,527 L183,507 Z M183,467 L356,467 L356,487 L183,487 L183,467 Z" id="Shape" fill="#FFD5D9"></path>
            <circle id="Shape" fill="#A587FF" cx="519" cy="480" r="50"></circle>
            <path d="M519,430 C491.385763,430 469,452.385763 469,480 L519,480 C519,459.08527 519,442.418603 519,430 Z" id="Shape" fill="#8B65FF"></path>
            <circle id="Shape" fill="#66D4FF" cx="659" cy="480" r="50"></circle>
            <path d="M659,478.677953 C659,479.559318 659,496.666667 659,530 C686.614237,530 709,507.614237 709,480 C709,480 692.333333,479.559318 659,478.677953 Z" id="Shape" fill="#00ADFF"></path>
            <polygon id="Shape" fill="#FF6E6E" points="239 288 319 288 319 363 239 363"></polygon>
            <path d="M40,348 L160,348 L160,363 L40,363 L40,348 Z M40,303 L160,303 L160,318 L40,318 L40,303 Z M40,258 L160,258 L160,273 L40,273 L40,258 Z M40,213 L160,213 L160,228 L40,228 L40,213 Z M40,168 L160,168 L160,183 L40,183 L40,168 Z M40,123 L160,123 L160,138 L40,138 L40,123 Z" id="Shape" fill="#FFD5D9"></path>
            <polygon id="Shape" fill="#A587FF" points="359 225 439 225 439 363 359 363"></polygon>
            <polygon id="Shape" fill="#00ADFF" points="479 162 559 162 559 363 479 363"></polygon>
            <polygon id="Shape" fill="#FF95D7" points="599 122 679 122 679 363 599 363"></polygon>
            <path d="M20,7.10542736e-14 L780,7.10542736e-14 C791.045695,6.90252123e-14 800,8.954305 800,20 L800,80 L1.30739863e-12,80 L1.30739863e-12,20 C1.30604593e-12,8.954305 8.954305,7.30833348e-14 20,7.10542736e-14 Z" id="Shape" fill="#FF6E6E"></path>
        </g>
        <g id="Women" transform="translate(1172.957716, 300.000000)">
            <path d="M93.1876824,622.182996 C97.5938869,619.57478 101.70994,617.574594 105.535842,616.182438 C111.274694,614.094051 111.643409,616.240249 111.643659,618.704614 C111.64391,621.168979 111.643659,626.701672 111.643659,631.170569 C111.643736,635.639542 110.259473,636.132582 102.390585,635.595251 C94.5216974,635.057919 93.5594429,634.329834 85.3054794,635.595251 C77.0515159,636.860668 60.3910489,636.618484 56.7582688,630.816129 C53.1257946,625.013777 64.8454613,622.630556 75.0894973,621.241068 C81.9187529,620.314641 87.9514813,620.628617 93.1876824,622.182996 Z" id="Shape" fill="#221E41"></path>
            <path d="M111.607784,595.946222 L111.607784,619.868714 L106.421354,621.897569 C96.9950666,625.584994 86.4702661,625.253505 77.2947102,620.980195 L89.9798774,618.244514 L89.9798774,595.946222 L111.607784,595.946222 Z" id="Shape" fill="#FE9F9F"></path>
            <path d="M200.750857,608.682205 C203.999272,604.724273 207.182993,601.43694 210.302019,598.820205 C214.980506,594.894961 216.061027,596.785619 216.904125,599.101279 C217.747223,601.416939 219.63928,606.616056 221.167733,610.815446 C222.696283,615.01488 221.564132,615.951632 213.986018,618.138024 C206.407904,620.324416 205.25466,619.96935 197.93127,623.981474 C190.607879,627.993599 174.86933,633.464236 169.471111,629.25429 C164.07318,625.044241 174.270955,618.796385 183.421967,613.987027 C189.522512,610.780727 195.298808,609.012453 200.750857,608.682205 Z" id="Shape" fill="#221E41"></path>
            <polygon id="Shape" fill="#FFFFFF" points="51.901839 142.901645 81.1692676 210.707476 33.3282225 245.96323 1.42108547e-14 175.451721"></polygon>
            <path d="M209.086585,577.727656 L217.268559,600.207446 L213.088819,603.887809 C205.492179,610.576836 195.488726,613.865031 185.404966,612.987659 L196.389466,606.078376 L188.763,585.124836 L209.086585,577.727656 Z" id="Shape" fill="#FE9F9F"></path>
            <polygon id="Shape" fill="#211D41" points="144.57524 260.975414 157.308696 302.669065 184.022294 488.591787 217.440742 590.961457 190.724209 599.011042 136.670077 496.603684 104.939567 341"></polygon>
            <path d="M30.4810799,231.07702 C27.9677836,227.713221 27.0898632,223.543361 27.847319,218.567439 C28.6047747,213.591516 27.9185489,209.695512 25.7886417,206.879426 L19.3903576,216.247167 L10.4667693,197 C7.57725723,209.054909 7.57725723,217.516164 10.4667693,222.383766 C13.3562814,227.251368 18.4635722,233.776615 25.7886417,241.959506 L30.4810799,231.07702 Z" id="Shape" fill="#FE9F9F"></path>
            <path d="M86.4388398,610.865872 C71.9638698,393.625515 64.7263848,278.096829 64.7263848,264.279814 C64.7263848,243.554292 154.809709,206.09224 154.809709,264.279814 C154.809709,277.772383 155.341091,291.084537 156.403854,304.216275 C157.880769,322.465358 155.162325,340.810425 148.456647,357.84698 L130.377106,403.780151 L117.55587,610.865872 L86.4388398,610.865872 Z" id="Shape" fill="#6937FF"></path>
            <path d="M159.25999,311.734576 C116.981071,316.709623 102.455333,318.267084 67.3221777,316.750232 C65.891001,292.292631 64.7263848,268.624436 64.7263848,264.279814 C64.7263848,252.871795 62.6845298,224.095232 58.6008198,177.950126 C58.5255914,177.10006 58.4879222,176.247088 58.4879222,175.3937 C58.4879222,159.377443 71.4716638,146.393701 87.4879208,146.393701 L139.3215,146.3937 C139.562997,146.3937 139.804473,146.398256 140.045798,146.407366 C150.642117,146.807385 158.907852,155.721678 158.507834,166.317997 L154.809709,264.279814 C156.538714,282.927953 158.022141,298.746207 159.25999,311.734576 Z" id="Shape" fill="#00ADFF"></path>
            <path d="M94.9302533,182.170856 L94.9302533,232.895748 C94.9302533,243.92598 91.2086436,254.633581 84.3675731,263.286082 C78.1177973,271.190722 71.8680215,279.095361 65.6182457,287 C65.1916681,278.633166 64.7263848,266.651758 64.7263848,264.279814 C64.7263848,260.100721 64.4523735,253.590817 63.9043508,244.750103 C72.0933086,244.750103 82.435276,223.890354 94.9302533,182.170856 Z" id="Shape" fill="#211D41"></path>
            <path d="M41.118046,41.5651154 C38.8936402,35.2421866 36.3965781,31.461736 33.6268596,30.2237636 C29.4722818,28.3668051 24.6534532,22.7318293 30.5748797,16.7329341 L34.6608399,13.1108441 L25.0422838,0.385766748 C25.77121,-0.530359116 28.6327353,0.185239249 33.6268596,2.53256184 C41.118046,6.05354573 46.1844072,10.9183235 48.855201,18.96382 C51.5259948,27.0093165 50.1989026,30.0379133 59.1787824,43.1295761 L44.148093,47.308348 L41.118046,41.5651154 Z" id="Shape" fill="#FE9F9F"></path>
            <polygon id="Shape" fill="#00ADFF" points="75.7728783 132.15199 39.0729023 39.7342743 57.2778913 33 99.1181166 92.3892795"></polygon>
            <path d="M76.2165808,154.89592 C79.4560316,154.973901 83.65631,156.231147 88.8174159,158.667656 C93.9785218,161.104166 96.4612268,165.999538 96.2655308,173.353771 L91.4087321,228.822387 C90.7942434,235.840351 88.2610031,242.554031 84.0862708,248.228626 L66.7519262,271.790706 C65.8778581,272.978802 64.8264411,274.025555 63.6344711,274.894332 C57.2075249,279.578666 48.2000524,278.166 43.5157181,271.739054 L17.4670055,236 L30.1113997,226.364445 L49.1534248,241.978428 L57.4865925,232.845934 C58.2586845,218.798264 58.6447305,201.714933 58.6447305,181.59594 C58.6447305,161.476948 64.5020139,152.576941 76.2165808,154.89592 Z" id="Shape" fill="#00ADFF"></path>
            <path d="M146.213399,226.49859 C122.545924,221.620292 109.738807,210.210639 107.792047,192.269629 C104.871906,165.358115 102.222941,160.928187 93.1940164,159.008507 C84.165092,157.088827 72.620786,145.597409 72.620786,117.958016 L72.620786,81.7732491 C72.620786,64.5419649 86.5895018,50.5732491 103.820786,50.5732491 L110.088167,50.5732491 C127.319451,50.5732491 141.288167,64.5419649 141.288167,81.7732491 L141.288167,117.958016 C142.135979,132.069483 145.728045,142.439098 152.064367,149.066861 C161.568849,159.008507 173.973434,170.765214 166.495417,196.670229 C161.510072,213.940239 154.7494,223.883026 146.213399,226.49859 Z" id="Shape" fill="#211D41"></path>
            <path d="M101.911649,600.967195 L100.911649,600.967195 L100.911649,593.967195 L101.911649,593.967195 L101.911649,600.967195 Z M101.911649,583.967195 L100.911649,583.967195 L100.911649,576.967195 L101.911649,576.967195 L101.911649,583.967195 Z M101.911649,566.967195 L100.911649,566.967195 L100.911649,559.967195 L101.911649,559.967195 L101.911649,566.967195 Z M101.911649,549.967195 L100.911649,549.967195 L100.911649,542.967195 L101.911649,542.967195 L101.911649,549.967195 Z M101.911649,532.967195 L100.911649,532.967195 L100.911649,525.967195 L101.911649,525.967195 L101.911649,532.967195 Z M101.911649,515.967195 L100.911649,515.967195 L100.911649,508.967195 L101.911649,508.967195 L101.911649,515.967195 Z M101.911649,498.967195 L100.911649,498.967195 L100.911649,491.967195 L101.911649,491.967195 L101.911649,498.967195 Z M101.911649,481.967195 L100.911649,481.967195 L100.911649,474.967195 L101.911649,474.967195 L101.911649,481.967195 Z M101.911649,464.967195 L100.911649,464.967195 L100.911649,457.967195 L101.911649,457.967195 L101.911649,464.967195 Z M101.911649,447.967195 L100.911649,447.967195 L100.911649,440.967195 L101.911649,440.967195 L101.911649,447.967195 Z M101.911649,430.967195 L100.911649,430.967195 L100.911649,423.967195 L101.911649,423.967195 L101.911649,430.967195 Z M101.911649,413.967195 L100.911649,413.967195 L100.911649,406.967195 L101.911649,406.967195 L101.911649,413.967195 Z M101.911649,396.967195 L100.911649,396.967195 L100.911649,389.967195 L101.911649,389.967195 L101.911649,396.967195 Z M101.911649,379.967195 L100.911649,379.967195 L100.911649,372.967195 L101.911649,372.967195 L101.911649,379.967195 Z M101.911649,362.967195 L100.911649,362.967195 L100.911649,355.967195 L101.911649,355.967195 L101.911649,362.967195 Z M101.911649,345.967195 L100.911649,345.967195 L100.911649,338.967195 L101.911649,338.967195 L101.911649,345.967195 Z" id="Shape" fill="#A587FF" fill-rule="nonzero"></path>
        </g>
        <g id="Men" transform="translate(318.074846, 257.808531)">
            <polygon id="Shape" fill="#221E41" points="170.822029 35.8256398 55.6366151 119.061168 23.8551836 85.1914686 170.918677 12.0939824"></polygon>
            <polygon id="Shape" fill="#211D41" points="13.606254 239.59972 76.2581676 280.046442 111.857496 318.428824 4.84388066 318.428824 4.84388066 262.17695"></polygon>
            <polygon id="Shape" fill="#FE9F9F" points="233.264527 418.215913 224.419175 404.465184 244.141561 393.740245 251.491953 410.680767"></polygon>
            <path d="M230.268242,418.030069 L250.136624,407.016844 L265.051188,404.241454 C272.638331,402.972289 278.488031,400.928224 282.388379,407.964639 C283.390318,409.772185 283.004904,411.901356 281.527533,412.720277 L244.26294,433.376378 C241.944352,434.661592 239.022893,433.823877 237.737679,431.50529 L230.268242,418.030069 Z" id="Shape" fill="#211D41"></path>
            <path d="M66.073659,89.1404732 L36.4527891,84.9775314 L38.0457425,73.6430785 C32.7119069,62.2892352 32.7781053,47.5721487 38.2443377,29.491819 C43.7105701,11.4114893 59.0145835,8.5282923 84.1563779,20.8422279 C83.3760468,31.6098053 85.2252246,38.7389056 89.7039112,42.2295289 C96.4219412,47.4654639 93.8134635,51.1056434 91.0807739,51.9710405 C88.3480843,52.8364376 86.3928815,54.6856146 86.2908529,60.9785643 C86.1888243,67.271514 82.2437118,67.9657785 76.0223119,69.5832779 C71.874712,70.6616108 68.5584943,77.1806759 66.073659,89.1404732 Z" id="Shape" fill="#FE9F9F"></path>
            <path d="M37.679526,73.3482738 C35.0558109,72.3589705 33.546897,70.7175784 33.1527841,68.4240977 C32.5616147,64.9838765 34.5631767,63.3883387 27.7992158,56.3128631 C21.0352548,49.2373875 15.6081809,39.8870925 19.921925,23.6179119 C24.2356692,7.34873139 34.0004663,6.0263507 43.7388552,5.19976071 C53.4772441,4.37317071 57.4296335,5.50999886 70.8151001,1.13872587 C84.2005667,-3.23254711 90.9305181,5.47844931 87.9974493,18.7706383 C85.0643805,32.0628272 64.9470767,31.5506364 61.4137806,31.054064 C57.8804844,30.5574916 59.6224909,35.868233 59.9701684,41.3258983 C60.3178459,46.7835636 56.8257217,47.9585366 55.5509553,47.1846501 C54.2761889,46.4107635 51.5667429,45.5053374 49.0943394,48.5072672 C46.6219358,51.509197 49.021195,56.3013054 50.9621646,56.5740909 C52.9031342,56.8468763 55.4880547,56.2897903 55.573384,58.5007198 C55.6587133,60.7116493 54.4701619,67.5120195 52.1899291,71.0995939 C50.6697739,73.4913102 45.8329728,74.2408701 37.679526,73.3482738 Z" id="Shape" fill="#221E41"></path>
            <path d="M18.2432021,247.774498 L101.008982,259.191469 L188.028881,288.5451 C198.796574,292.177268 207.573821,300.115493 212.265971,310.465352 L252.036956,398.191469 L222.285204,407.486749 L163.87462,327.191469 L73.2836775,325.135827 C37.0169478,326.402289 6.59028414,298.028966 5.32382203,261.762237 L18.2432021,247.774498 Z" id="Shape" fill="#6937FF"></path>
            <path d="M127.925154,93.0232802 L188.495224,93.0232802 L273.423666,50.3571766 L281.462796,40.1914686 L281.462796,49.4680472 L301.755144,49.4680472 C299.795884,60.0085253 295.92401,66.583117 290.139525,69.1918221 C284.355039,71.8005273 276.000266,71.8005273 265.075205,69.1918221 L189.688988,125.060974 L127.925154,133.857572 L127.925154,93.0232802 Z" id="Shape" fill="#FE9F9F"></path>
            <path d="M138.025197,88.7281537 L133.75153,136.191469 L97.8833984,137.191469 L102.387705,258.835129 L4.8375708,262.241655 L0.0260795514,124.458573 C-0.78344776,101.276744 17.3528863,81.8279066 40.5347154,81.0183793 L53.6955036,80.5587945 C62.7372506,80.2430497 109.52958,86.0562858 138.025197,88.7281537 Z" id="Shape" fill="#00ADFF"></path>
            <path d="M49.7895601,269.033301 L50.5167042,268.346816 C52.1749877,270.103317 53.7877857,271.785555 55.3550893,273.393526 L54.6389851,274.091519 C53.067901,272.47967 51.4514289,270.793599 49.7895601,269.033301 Z M61.7323558,281.162648 L62.4267076,280.443012 C64.1955042,282.149664 65.8939593,283.74158 67.5220306,285.218739 L66.8500816,285.959337 C65.2142145,284.475104 63.5083199,282.876215 61.7323558,281.162648 Z M74.4942249,292.462993 L75.1116134,291.676334 C77.1464647,293.273334 79.029591,294.624074 80.760363,295.728434 L80.2224619,296.571442 C78.4625729,295.448503 76.5533704,294.07906 74.4942249,292.462993 Z M89.6008401,300.428486 L89.7147673,299.434997 L96.669191,300.232487 L96.5552638,301.225977 L89.6008401,300.428486 Z M106.490155,302.365248 L106.604082,301.371759 L113.558506,302.169249 L113.444579,303.162738 L106.490155,302.365248 Z M123.37947,304.30201 L123.493397,303.308521 L130.447821,304.106011 L130.333893,305.0995 L123.37947,304.30201 Z M140.268784,306.238772 L140.382712,305.245283 L147.337135,306.042773 L147.223208,307.036262 L140.268784,306.238772 Z M157.158099,308.175534 L157.272026,307.182045 L164.22645,307.979535 L164.112523,308.973024 L157.158099,308.175534 Z M173.827944,310.806688 L174.140772,309.856878 C176.396211,310.599725 178.569447,311.566619 180.628579,312.741667 L180.132948,313.610201 C178.131809,312.468246 176.019806,311.528595 173.827944,310.806688 Z M187.890493,319.648684 L188.610888,318.95512 C190.253346,320.661117 191.723499,322.529986 192.998582,324.537199 L192.154495,325.073406 C190.915343,323.122755 189.486647,321.306585 187.890493,319.648684 Z M197.045913,333.800205 L197.921416,333.316992 L201.303907,339.445512 L200.428404,339.928725 L197.045913,333.800205 Z M205.260533,348.683753 L206.136036,348.20054 L209.518527,354.32906 L208.643024,354.812273 L205.260533,348.683753 Z M213.475153,363.567302 L214.350656,363.084089 L217.733147,369.212609 L216.857644,369.695822 L213.475153,363.567302 Z M221.689773,378.45085 L222.565276,377.967637 L225.947767,384.096157 L225.072264,384.57937 L221.689773,378.45085 Z" id="Shape" fill="#A587FF" fill-rule="nonzero"></path>
        </g>
        <g id="Data" transform="translate(599.000000, 195.000000)">
            <path d="M4,0 L161,0 C163.209139,-4.05812251e-16 165,1.790861 165,4 L165,161 C165,163.209139 163.209139,165 161,165 L4,165 C1.790861,165 0,163.209139 0,161 L0,4 C0,1.790861 1.790861,4.05812251e-16 4,0 Z" id="Shape" fill="#66D4FF"></path>
            <path d="M84.8667113,61.1642755 L44,61.1642755 L44,33.9878049 L84.8667113,33.9878049 L84.8667113,21 L122,47.5 L84.8667113,74 L84.8667113,61.1642755 Z M81.1332887,131.164275 L81.1332887,144 L44,117.5 L81.1332887,91 L81.1332887,103.987805 L122,103.987805 L122,131.164275 L81.1332887,131.164275 Z" id="Shape" fill="#CCF2FF"></path>
        </g>
    </g>
</svg>