<svg t="1676378019957" class="icon" viewBox="0 0 1024 1024" version="1.1" xmlns="http://www.w3.org/2000/svg" p-id="1043" width="200" height="200"><path d="M688 328.48V624a64 64 0 0 1-48 61.76 57.44 57.44 0 0 1-13.92 2.08H560V560a48 48 0 0 0-96 0v128h-66.08a57.44 57.44 0 0 1-13.92-2.08A64 64 0 0 1 336 624V328.48a338.08 338.08 0 0 1 61.12-193.76 333.92 333.92 0 0 1 84.48-83.84A311.04 311.04 0 0 1 512 32a338.56 338.56 0 0 1 114.88 102.72c4.8 6.88 9.44 14.08 13.76 21.44A337.44 337.44 0 0 1 688 328.48z" fill="#5EA2CC" p-id="1044"></path><path d="M640 336v224a64 64 0 0 1-64 64H336V328.48a338.08 338.08 0 0 1 61.12-193.76 333.92 333.92 0 0 1 84.48-83.84 330.88 330.88 0 0 1 60 48A334.88 334.88 0 0 1 640 336z" fill="#76B4E2" p-id="1045"></path><path d="M592 368a80 80 0 0 1-152.96 32.96A81.12 81.12 0 0 1 432 368a80 80 0 0 1 80-80 81.12 81.12 0 0 1 32.96 7.04A80 80 0 0 1 592 368z" fill="#ACD5EA" p-id="1046"></path><path d="M552 328a80 80 0 0 1-80 80 81.12 81.12 0 0 1-32.96-7.04A81.12 81.12 0 0 1 432 368a80 80 0 0 1 80-80 81.12 81.12 0 0 1 32.96 7.04 81.12 81.12 0 0 1 7.04 32.96z" fill="#CEE6F4" p-id="1047"></path><path d="M626.88 134.72A144 144 0 0 1 512 192a148.64 148.64 0 0 1-24-1.92 144 144 0 0 1-90.88-55.36 336 336 0 0 1 90.88-88.16A258.72 258.72 0 0 1 512 32a338.56 338.56 0 0 1 114.88 102.72z" fill="#0A2872" p-id="1048"></path><path d="M489.12 189.92h-1.12a144 144 0 0 1-90.88-55.36 336 336 0 0 1 90.88-88 344.96 344.96 0 0 1 32 24 68.64 68.64 0 0 1-30.88 119.36zM560 560v144a43.68 43.68 0 0 1-1.12 10.24A48 48 0 0 1 512 752a46.72 46.72 0 0 1-24-6.4 48 48 0 0 1-22.88-32A43.68 43.68 0 0 1 464 704v-144a48 48 0 0 1 96 0z" fill="#1B45AF" p-id="1049"></path><path d="M512 560v144a43.68 43.68 0 0 1-1.12 10.24 48 48 0 0 1-22.88 32 48 48 0 0 1-22.88-32A43.68 43.68 0 0 1 464 704v-144a48 48 0 0 1 24-41.6 52.8 52.8 0 0 1 9.92 7.68A48 48 0 0 1 512 560zM384 685.76V688a64 64 0 0 1-64 64h-96v-128a112 112 0 0 1 64-101.12 109.44 109.44 0 0 1 48-10.88v112a64 64 0 0 0 48 61.76z" fill="#0A2872" p-id="1050"></path><path d="M800 624v128h-96a64 64 0 0 1-64-64v-2.24A64 64 0 0 0 688 624v-112a112 112 0 0 1 112 112zM336 688a64 64 0 0 1-64 64h-48v-128a112 112 0 0 1 64-101.12V624a64 64 0 0 0 45.76 61.12 3.2 3.2 0 0 1 2.24 2.88z" fill="#1B45AF" p-id="1051"></path><path d="M752 624v128h-48a64 64 0 0 1-64-64v-2.24A64 64 0 0 0 688 624v-101.12A112 112 0 0 1 752 624z" fill="#0A2872" p-id="1052"></path><path d="M640 807.36A197.44 197.44 0 0 1 512 992a197.12 197.12 0 0 1-128-184.64 120 120 0 0 1 34.88-84.48A117.92 117.92 0 0 1 464 694.88V704a43.68 43.68 0 0 0 1.12 10.24A112 112 0 0 0 448 775.84c0 60.64 25.44 114.88 64 136.16a115.2 115.2 0 0 0 46.4-53.28 196.8 196.8 0 0 0 17.6-82.88 112 112 0 0 0-17.12-61.6A43.68 43.68 0 0 0 560 704v-9.12a118.88 118.88 0 0 1 80 112.48z" fill="#D30B32" p-id="1053"></path><path d="M576 775.84a196.8 196.8 0 0 1-17.6 82.88A115.2 115.2 0 0 1 512 912c-38.56-21.28-64-75.52-64-136.16a112 112 0 0 1 17.12-61.6 48 48 0 0 0 93.76 0A112 112 0 0 1 576 775.84z" fill="#D1B339" p-id="1054"></path><path d="M512 464a96 96 0 0 1-96-96 93.12 93.12 0 0 1 2.88-23.2 16 16 0 0 1 19.68-11.36 16 16 0 0 1 11.36 19.52A57.76 57.76 0 0 0 448 368a64 64 0 1 0 32-55.36 16 16 0 0 1-21.76-5.76 16 16 0 0 1 5.76-21.92 94.56 94.56 0 0 1 48-12.96 96 96 0 0 1 0 192zM512 208a158.24 158.24 0 0 1-128-64 16 16 0 0 1 0-18.56 196.32 196.32 0 0 1 13.12-17.28A16 16 0 0 1 421.76 128l-4.32 5.6a128 128 0 0 0 189.28 0A320 320 0 0 0 512 50.4a304 304 0 0 0-48 34.24 16 16 0 0 1-20.8-24.32 350.24 350.24 0 0 1 61.12-42.4 16 16 0 0 1 16 0A353.12 353.12 0 0 1 640 125.6 16 16 0 0 1 640 144a158.24 158.24 0 0 1-128 64z" fill="#0D182D" p-id="1055"></path><path d="M624 704h-64a16 16 0 0 1-16-16v-128a32 32 0 0 0-32-32 32 32 0 0 0-32 32v128a16 16 0 0 1-16 16h-67.68a68.32 68.32 0 0 1-16-2.72A80 80 0 0 1 320 624V328.48a352 352 0 0 1 64-202.88c4-5.92 8.48-11.52 13.12-17.12A16 16 0 0 1 421.76 128c-4 4.96-7.84 9.92-11.36 15.04A320.96 320.96 0 0 0 352 328.48V624a48 48 0 0 0 35.84 46.24 46.88 46.88 0 0 0 10.56 1.6H448V560a64 64 0 1 1 128 0v112h49.6a48 48 0 0 0 46.4-48V464a16 16 0 0 1 32 0v160a80 80 0 0 1-60.16 77.28 69.76 69.76 0 0 1-16 2.56z m-1.76-32zM688 400.8a16 16 0 0 1-16-16v-56.32a320.8 320.8 0 0 0-45.12-164.16c-4.16-7.04-8.48-13.92-13.12-20.48A320 320 0 0 0 512 50.4a304 304 0 0 0-48 34.24 16 16 0 0 1-20.8-24.32 350.24 350.24 0 0 1 61.12-42.4 16 16 0 0 1 16 0A353.12 353.12 0 0 1 640 125.6c4.96 7.2 9.92 14.72 14.4 22.4A353.28 353.28 0 0 1 704 328.48v56.32a16 16 0 0 1-16 16z" fill="#0D182D" p-id="1056"></path><path d="M512 768a64 64 0 0 1-62.56-50.4A58.08 58.08 0 0 1 448 704v-144a64 64 0 1 1 128 0v144a56.64 56.64 0 0 1-1.6 14.08A64 64 0 0 1 512 768z m0-240a32 32 0 0 0-32 32v144a24.64 24.64 0 0 0 0 6.4 32 32 0 0 0 62.56 0A23.84 23.84 0 0 0 544 704v-144a32 32 0 0 0-32-32zM320 768h-96a16 16 0 0 1-16-16v-16a16 16 0 0 1 32 0h80a48 48 0 0 0 48-39.2A80 80 0 0 1 320 624v-94.72A96 96 0 0 0 240 624v48a16 16 0 0 1-32 0v-48a128 128 0 0 1 128-128 16 16 0 0 1 16 16v112a48 48 0 0 0 35.84 46.24 16 16 0 0 1 12.16 16V688a80 80 0 0 1-80 80zM800 768h-96a80 80 0 0 1-80-80v-2.24a16 16 0 0 1 12.16-16A48 48 0 0 0 672 624v-112a16 16 0 0 1 16-16 128 128 0 0 1 128 128v128a16 16 0 0 1-16 16z m-144-71.2A48 48 0 0 0 704 736h80v-112a96 96 0 0 0-80-94.72V624a80 80 0 0 1-47.2 72.8z" fill="#0D182D" p-id="1057"></path><path d="M512 928a16 16 0 0 1-7.68-1.92c-44-24.32-72.32-83.2-72.32-150.24a136.16 136.16 0 0 1 9.76-51.52 136.64 136.64 0 0 0-11.68 9.92A104 104 0 0 0 400 807.36a178.72 178.72 0 0 0 8 52.64 16 16 0 0 1-30.4 9.6 206.24 206.24 0 0 1-9.6-62.24 134.56 134.56 0 0 1 90.88-128 16 16 0 0 1 14.4 2.24 16 16 0 0 1 6.72 12.96V704a24.64 24.64 0 0 0 0 6.4 16 16 0 0 1-2.24 12.64 96 96 0 0 0-14.4 52.8c0 50.4 19.04 96 48 117.28a88.32 88.32 0 0 0 16-14.72 16 16 0 0 1 24.64 20.48 113.6 113.6 0 0 1-32 27.2 16 16 0 0 1-8 1.92z" fill="#0D182D" p-id="1058"></path><path d="M512 1008a16 16 0 0 1-5.6-0.96 213.12 213.12 0 0 1-99.52-76.96A16 16 0 1 1 433.12 912 179.52 179.52 0 0 0 512 976a181.12 181.12 0 0 0 112-167.36 102.88 102.88 0 0 0-41.76-82.88 135.36 135.36 0 0 1 9.76 50.08 221.44 221.44 0 0 1-8.64 61.76 16 16 0 0 1-30.72-8.96 193.92 193.92 0 0 0 7.36-52.8 96 96 0 0 0-14.4-52.8 16 16 0 0 1-1.6-12.64 24.64 24.64 0 0 0 0-6.4v-9.12a16 16 0 0 1 6.72-12.96 16 16 0 0 1 14.56-2.24 135.04 135.04 0 0 1 90.72 128 213.76 213.76 0 0 1-138.4 199.68A16 16 0 0 1 512 1008z" fill="#0D182D" p-id="1059"></path><path d="M512 928a16 16 0 0 1-7.68-1.92c-44-24.32-72.32-83.2-72.32-150.24a128 128 0 0 1 19.84-70.56 16 16 0 0 1 16-6.72 16 16 0 0 1 12.64 12.32 32 32 0 0 0 62.4 0 16 16 0 0 1 12.64-12.32 16 16 0 0 1 16 6.72A128 128 0 0 1 592 775.84a221.44 221.44 0 0 1-8.64 61.76 16 16 0 0 1-30.72-8.96 193.92 193.92 0 0 0 7.36-52.8 107.2 107.2 0 0 0-3.2-26.24 64 64 0 0 1-89.6 0 107.2 107.2 0 0 0-3.2 26.24c0 50.4 19.04 96 48 117.28a88.32 88.32 0 0 0 16-14.72 16 16 0 0 1 24.64 20.48 113.6 113.6 0 0 1-32 27.2A16 16 0 0 1 512 928z" fill="#0D182D" p-id="1060"></path><path d="M160 560a16 16 0 0 1-16-16 16 16 0 0 0-16-16 16 16 0 0 1 0-32 16 16 0 0 0 16-16 16 16 0 0 1 32 0 16 16 0 0 0 16 16 16 16 0 0 1 0 32 16 16 0 0 0-16 16 16 16 0 0 1-16 16z" fill="#CEE6F4" p-id="1061"></path><path d="M960 480a16 16 0 0 1-16-16 16 16 0 0 0-16-16 16 16 0 0 1 0-32 16 16 0 0 0 16-16 16 16 0 0 1 32 0 16 16 0 0 0 16 16 16 16 0 0 1 0 32 16 16 0 0 0-16 16 16 16 0 0 1-16 16z" fill="#D1B339" p-id="1062"></path><path d="M896 800a16 16 0 0 1-16-16 16 16 0 0 0-16-16 16 16 0 0 1 0-32 16 16 0 0 0 16-16 16 16 0 0 1 32 0 16 16 0 0 0 16 16 16 16 0 0 1 0 32 16 16 0 0 0-16 16 16 16 0 0 1-16 16z" fill="#CEE6F4" p-id="1063"></path><path d="M224 896a16 16 0 0 1-16-16 16 16 0 0 0-16-16 16 16 0 0 1 0-32 16 16 0 0 0 16-16 16 16 0 0 1 32 0 16 16 0 0 0 16 16 16 16 0 0 1 0 32 16 16 0 0 0-16 16 16 16 0 0 1-16 16z" fill="#D1B339" p-id="1064"></path><path d="M736 176a16 16 0 0 1-16-16 16 16 0 0 0-16-16 16 16 0 0 1 0-32 16 16 0 0 0 16-16 16 16 0 0 1 32 0 16 16 0 0 0 16 16 16 16 0 0 1 0 32 16 16 0 0 0-16 16 16 16 0 0 1-16 16z" fill="#CEE6F4" p-id="1065"></path><path d="M160 272a16 16 0 0 1-16-16 16 16 0 0 0-16-16 16 16 0 0 1 0-32 16 16 0 0 0 16-16 16 16 0 0 1 32 0 16 16 0 0 0 16 16 16 16 0 0 1 0 32 16 16 0 0 0-16 16 16 16 0 0 1-16 16z" fill="#D1B339" p-id="1066"></path><path d="M896 240m-16 0a16 16 0 1 0 32 0 16 16 0 1 0-32 0Z" fill="#D1B339" p-id="1067"></path><path d="M976 592m-16 0a16 16 0 1 0 32 0 16 16 0 1 0-32 0Z" fill="#CEE6F4" p-id="1068"></path><path d="M800 384m-16 0a16 16 0 1 0 32 0 16 16 0 1 0-32 0Z" fill="#CEE6F4" p-id="1069"></path><path d="M272 352m-16 0a16 16 0 1 0 32 0 16 16 0 1 0-32 0Z" fill="#CEE6F4" p-id="1070"></path><path d="M160 752m-16 0a16 16 0 1 0 32 0 16 16 0 1 0-32 0Z" fill="#CEE6F4" p-id="1071"></path><path d="M720 928m-16 0a16 16 0 1 0 32 0 16 16 0 1 0-32 0Z" fill="#D1B339" p-id="1072"></path><path d="M48 512m-16 0a16 16 0 1 0 32 0 16 16 0 1 0-32 0Z" fill="#D1B339" p-id="1073"></path><path d="M320 112m-16 0a16 16 0 1 0 32 0 16 16 0 1 0-32 0Z" fill="#D1B339" p-id="1074"></path></svg>