<svg xmlns="http://www.w3.org/2000/svg" xmlns:xlink="http://www.w3.org/1999/xlink" viewBox="0 0 230.25 175.94"><defs><style>.cls-1{fill:url(#未命名的渐变_637);}.cls-2{fill:url(#未命名的渐变_637-2);}.cls-3{fill:url(#未命名的渐变_637-3);}.cls-4{fill:url(#未命名的渐变_637-4);}.cls-5{fill:#dfe8ef;}.cls-6,.cls-7{fill:none;stroke:#dfe8ef;stroke-linecap:round;stroke-linejoin:round;stroke-width:2px;}.cls-7{stroke-dasharray:5.15 6.18;}.cls-8{fill:url(#未命名的渐变_192);}.cls-9{fill:url(#未命名的渐变_125);}.cls-10{fill:url(#未命名的渐变_142);}.cls-11{fill:url(#未命名的渐变_125-2);}.cls-12{fill:url(#未命名的渐变_125-3);}.cls-13{fill:url(#未命名的渐变_125-4);}.cls-14{fill:url(#未命名的渐变_363);}.cls-15{fill:url(#未命名的渐变_363-2);}.cls-16{fill:url(#未命名的渐变_363-3);}.cls-17{fill:url(#未命名的渐变_236);}.cls-18{fill:url(#未命名的渐变_363-4);}.cls-19{opacity:0.72;fill:url(#未命名的渐变_109);}.cls-20{opacity:0.4;}.cls-21{fill:#fff;}</style><linearGradient id="未命名的渐变_637" x1="190.33" y1="156.31" x2="208.18" y2="156.31" gradientUnits="userSpaceOnUse"><stop offset="0" stop-color="#eabaff"/><stop offset="1" stop-color="#ffc5c4"/></linearGradient><linearGradient id="未命名的渐变_637-2" x1="190.33" y1="165.83" x2="230.25" y2="165.83" xlink:href="#未命名的渐变_637"/><linearGradient id="未命名的渐变_637-3" x1="-2986.78" y1="14.44" x2="-2968.92" y2="14.44" gradientTransform="matrix(1, 0, 0, -1, 3008.75, 28.89)" xlink:href="#未命名的渐变_637"/><linearGradient id="未命名的渐变_637-4" x1="-2986.78" y1="23.97" x2="-2946.86" y2="23.97" gradientTransform="matrix(1, 0, 0, -1, 2986.78, 47.93)" xlink:href="#未命名的渐变_637"/><linearGradient id="未命名的渐变_192" x1="115.8" y1="183.45" x2="115.8" y2="0.44" gradientUnits="userSpaceOnUse"><stop offset="0" stop-color="#f59aec"/><stop offset="1" stop-color="#9199f5"/></linearGradient><linearGradient id="未命名的渐变_125" x1="115.8" y1="177.05" x2="115.8" y2="76.43" gradientUnits="userSpaceOnUse"><stop offset="0" stop-color="#fff3a8"/><stop offset="1" stop-color="#ffd57b"/></linearGradient><linearGradient id="未命名的渐变_142" x1="115.8" y1="139.78" x2="115.8" y2="178.17" gradientUnits="userSpaceOnUse"><stop offset="0" stop-color="#ffd57b"/><stop offset="1" stop-color="#ffe67b"/></linearGradient><linearGradient id="未命名的渐变_125-2" x1="167.53" y1="127.42" x2="167.53" y2="3.66" xlink:href="#未命名的渐变_125"/><linearGradient id="未命名的渐变_125-3" x1="61.04" y1="127.42" x2="61.04" y2="3.66" xlink:href="#未命名的渐变_125"/><linearGradient id="未命名的渐变_125-4" x1="75.86" y1="127.42" x2="75.86" y2="3.66" xlink:href="#未命名的渐变_125"/><linearGradient id="未命名的渐变_363" x1="78.82" y1="54.41" x2="78.82" y2="106.42" gradientUnits="userSpaceOnUse"><stop offset="0" stop-color="#ff73a9"/><stop offset="1" stop-color="#ffadc9"/></linearGradient><linearGradient id="未命名的渐变_363-2" x1="152.78" y1="54.41" x2="152.78" y2="106.42" xlink:href="#未命名的渐变_363"/><linearGradient id="未命名的渐变_363-3" x1="115.8" y1="54.41" x2="115.8" y2="106.42" xlink:href="#未命名的渐变_363"/><linearGradient id="未命名的渐变_236" x1="115.8" y1="98.71" x2="115.8" y2="-5.31" gradientUnits="userSpaceOnUse"><stop offset="0" stop-color="#fff"/><stop offset="1" stop-color="#ffcfcf"/></linearGradient><linearGradient id="未命名的渐变_363-4" x1="115.8" y1="29.35" x2="115.8" y2="66.92" xlink:href="#未命名的渐变_363"/><linearGradient id="未命名的渐变_109" x1="115.8" y1="27.63" x2="115.8" y2="66.68" gradientUnits="userSpaceOnUse"><stop offset="0" stop-color="#55e4ff"/><stop offset="1" stop-color="#8a7bff"/></linearGradient></defs><title>程序升级</title><g id="图层_2" data-name="图层 2"><g id="图层_1-2" data-name="图层 1"><g id="未来可期"><rect class="cls-1" x="190.33" y="153.74" width="17.95" height="5.14" rx="2.57" ry="2.57"/><rect class="cls-2" x="190.33" y="163.26" width="39.92" height="5.14" rx="2.57" ry="2.57"/><rect class="cls-3" x="21.97" y="11.87" width="17.95" height="5.14" rx="2.57" ry="2.57" transform="translate(61.9 28.89) rotate(-180)"/><rect class="cls-4" y="21.4" width="39.92" height="5.14" rx="2.57" ry="2.57" transform="translate(39.92 47.93) rotate(180)"/><circle class="cls-5" cx="212" cy="64.76" r="5.4"/><line class="cls-6" x1="212.25" y1="59.85" x2="212.25" y2="57.35"/><path class="cls-7" d="M212.25,51.17V44a15.94,15.94,0,0,0-15.94-15.94H163.62"/><line class="cls-6" x1="160.53" y1="28.06" x2="158.03" y2="28.06"/><circle class="cls-5" cx="13.39" cy="107.94" r="5.4"/><line class="cls-6" x1="13.14" y1="112.85" x2="13.14" y2="115.35"/><path class="cls-7" d="M13.14,121.53v7.17a15.94,15.94,0,0,0,15.94,15.94H61.77"/><line class="cls-6" x1="64.86" y1="144.64" x2="67.36" y2="144.64"/><path class="cls-8" d="M198.36,93.38a82.4,82.4,0,0,1-1.73,16.88,81.54,81.54,0,0,1-2.44,9.12,82.58,82.58,0,0,1-161-26c0-1.68.05-3.36.16-5A82.11,82.11,0,0,1,42,56.3,82.87,82.87,0,0,1,83.53,17.36h0a82.51,82.51,0,0,1,114.67,71C198.31,90,198.36,91.7,198.36,93.38Z"/><path class="cls-9" d="M198.21,88.37a19,19,0,0,0-26.14,23.34A12.3,12.3,0,0,0,162,123.8a12.65,12.65,0,0,0,.13,1.75,19.8,19.8,0,0,0-3-.24,19,19,0,0,0-6.89,1.29A21.49,21.49,0,0,0,123,116.71v-14H108.55v14a21.48,21.48,0,0,0-29.16,9.89,19,19,0,0,0-6.89-1.29,19.93,19.93,0,0,0-3,.24,11.27,11.27,0,0,0,.13-1.75,12.29,12.29,0,0,0-10.09-12.09A19,19,0,0,0,33.39,88.37c-.11,1.65-.16,3.32-.16,5a82.57,82.57,0,1,0,165.13,0Q198.36,90.85,198.21,88.37Z"/><path class="cls-10" d="M194.7,117.79a82.6,82.6,0,0,1-157.8,0,18.82,18.82,0,0,1,4.6-.56,19,19,0,0,1,18,25.15,12.28,12.28,0,0,1,10.09,12.08,11.3,11.3,0,0,1-.13,1.76,18.71,18.71,0,0,1,3-.24,19,19,0,0,1,6.89,1.29,21.48,21.48,0,0,1,36.41-3.87,21.48,21.48,0,0,1,36.41,3.87A18.92,18.92,0,0,1,159.1,156a18.59,18.59,0,0,1,3,.24,12.68,12.68,0,0,1-.13-1.76,12.29,12.29,0,0,1,10.1-12.08,19,19,0,0,1,22.63-24.59Z"/><path class="cls-11" d="M177.73,58.59h-4.44a3.91,3.91,0,0,1-3.91-3.91V50.24a1.9,1.9,0,0,0-1.67-1.92,1.85,1.85,0,0,0-2,1.84v4.52a3.92,3.92,0,0,1-3.92,3.91h-4.43a1.9,1.9,0,0,0-1.92,1.67,1.85,1.85,0,0,0,1.84,2h4.51a3.92,3.92,0,0,1,3.92,3.91v4.43a1.89,1.89,0,0,0,1.67,1.92,1.85,1.85,0,0,0,2-1.84V66.21a3.91,3.91,0,0,1,3.91-3.91h4.52a1.85,1.85,0,0,0,1.84-2A1.9,1.9,0,0,0,177.73,58.59Z"/><path class="cls-12" d="M71.24,34.62H66.8a3.91,3.91,0,0,1-3.91-3.91V26.28a1.92,1.92,0,0,0-1.67-1.93,1.86,1.86,0,0,0-2,1.85v4.51a3.91,3.91,0,0,1-3.91,3.91H50.84a1.91,1.91,0,0,0-1.93,1.68,1.86,1.86,0,0,0,1.85,2h4.51a3.91,3.91,0,0,1,3.91,3.91v4.44a1.9,1.9,0,0,0,1.67,1.92,1.85,1.85,0,0,0,2-1.84V42.24a3.91,3.91,0,0,1,3.91-3.91h4.51a1.85,1.85,0,0,0,1.85-2A1.91,1.91,0,0,0,71.24,34.62Z"/><path class="cls-13" d="M83.39,109.06H80.12a2.88,2.88,0,0,1-2.89-2.88v-3.27A1.4,1.4,0,0,0,76,101.49a1.36,1.36,0,0,0-1.5,1.36v3.33a2.88,2.88,0,0,1-2.89,2.88H68.34a1.42,1.42,0,0,0-1.42,1.24,1.37,1.37,0,0,0,1.36,1.5h3.33a2.88,2.88,0,0,1,2.89,2.88V118a1.4,1.4,0,0,0,1.23,1.42,1.36,1.36,0,0,0,1.5-1.36v-3.33a2.88,2.88,0,0,1,2.89-2.88h3.33a1.38,1.38,0,0,0,1.36-1.5A1.42,1.42,0,0,0,83.39,109.06Z"/><path class="cls-14" d="M84.26,64.44s-18.3,7.07-18,30.94a3.83,3.83,0,0,0,6.12,3c3.72-2.71,9.75-4.45,19-.58"/><path class="cls-15" d="M147.34,64.44s18.29,7.07,18,30.94a3.84,3.84,0,0,1-6.13,3c-3.72-2.71-9.75-4.45-19-.58"/><path class="cls-16" d="M129.72,102.76H101.87a2.73,2.73,0,0,1-2.7-3.14l3.5-23.12h26.26l3.5,23.12A2.73,2.73,0,0,1,129.72,102.76Z"/><path class="cls-17" d="M115.8,89.34a39.34,39.34,0,0,1,24.42,8.45A81.62,81.62,0,0,0,115.8,0,81.65,81.65,0,0,0,91.37,97.79,39.39,39.39,0,0,1,115.8,89.34Z"/><circle class="cls-18" cx="115.8" cy="48.25" r="17.51"/><circle class="cls-19" cx="115.8" cy="48.25" r="10.85"/><g class="cls-20"><circle class="cls-21" cx="121.15" cy="49.8" r="4.19"/><circle class="cls-21" cx="115.63" cy="43.18" r="2.74"/></g></g></g></g></svg>